<svg width="152" height="152" viewBox="0 0 152 152" fill="none" xmlns="http://www.w3.org/2000/svg">
<g filter="url(#filter0_i_1351_42170)">
<g clip-path="url(#clip0_1351_42170)">
<path d="M135.576 152H16.4244C7.3536 152 0 144.646 0 135.576V16.4244C0 7.3536 7.3536 0 16.4244 0H135.575C144.646 0 152 7.3536 152 16.4244V135.575C152 144.646 144.646 152 135.576 152Z" fill="black"/>
<path d="M135.576 152H16.4244C7.3536 152 0 144.646 0 135.576V16.4244C0 7.3536 7.3536 0 16.4244 0H135.575C144.646 0 152 7.3536 152 16.4244V135.575C152 144.646 144.646 152 135.576 152Z" fill="black"/>
<path d="M83.3888 75.9999C83.3888 94.0899 68.8239 108.755 50.857 108.755C32.8904 108.755 18.3252 94.0899 18.3252 75.9999C18.3252 57.9099 32.8901 43.2451 50.857 43.2451C68.8236 43.2451 83.3888 57.9099 83.3888 75.9999Z" fill="white"/>
<path d="M119.077 76C119.077 93.0287 111.794 106.833 102.811 106.833C93.8278 106.833 86.5454 93.0287 86.5454 76C86.5454 58.9713 93.8278 45.167 102.811 45.167C111.794 45.167 119.077 58.9716 119.077 76Z" fill="white"/>
<path d="M133.675 76.0002C133.675 91.2571 131.113 103.625 127.954 103.625C124.794 103.625 122.233 91.2571 122.233 76.0002C122.233 60.7432 124.794 48.375 127.954 48.375C131.114 48.375 133.675 60.7432 133.675 76.0002Z" fill="white"/>
</g>
</g>
<defs>
<filter id="filter0_i_1351_42170" x="0" y="-2" width="154" height="154" filterUnits="userSpaceOnUse" color-interpolation-filters="sRGB">
<feFlood flood-opacity="0" result="BackgroundImageFix"/>
<feBlend mode="normal" in="SourceGraphic" in2="BackgroundImageFix" result="shape"/>
<feColorMatrix in="SourceAlpha" type="matrix" values="0 0 0 0 0 0 0 0 0 0 0 0 0 0 0 0 0 0 127 0" result="hardAlpha"/>
<feOffset dx="2" dy="-2"/>
<feGaussianBlur stdDeviation="2"/>
<feComposite in2="hardAlpha" operator="arithmetic" k2="-1" k3="1"/>
<feColorMatrix type="matrix" values="0 0 0 0 1 0 0 0 0 1 0 0 0 0 1 0 0 0 0.2 0"/>
<feBlend mode="normal" in2="shape" result="effect1_innerShadow_1351_42170"/>
</filter>
<clipPath id="clip0_1351_42170">
<rect width="152" height="152" rx="32" fill="white"/>
</clipPath>
</defs>
</svg>
