<svg width="111" height="32" viewBox="0 0 111 32" fill="none" xmlns="http://www.w3.org/2000/svg">
<path d="M110.154 28.3096C110.154 30.0149 108.744 31.3962 107 31.3962H3.7739C2.03056 31.3962 0.615479 30.0149 0.615479 28.3096V3.69445C0.615479 1.98994 2.03056 0.60376 3.7739 0.60376H106.999C108.744 0.60376 110.153 1.98994 110.153 3.69445L110.154 28.3096Z" fill="black"/>
<path d="M106.667 0.641C108.566 0.641 110.112 2.148 110.112 4V28C110.112 29.852 108.566 31.359 106.667 31.359H4.10256C2.20308 31.359 0.657436 29.852 0.657436 28V4C0.657436 2.148 2.20308 0.641 4.10256 0.641H106.667ZM106.667 1.69118e-06H4.10256C1.84718 1.69118e-06 0 1.801 0 4V28C0 30.199 1.84718 32 4.10256 32H106.667C108.922 32 110.769 30.199 110.769 28V4C110.769 1.801 108.922 1.69118e-06 106.667 1.69118e-06Z" fill="#A6A6A6"/>
<path d="M24.7206 15.8271C24.6968 13.2487 26.8859 11.9943 26.986 11.9359C25.7462 10.1735 23.8246 9.93271 23.1493 9.91351C21.5354 9.74791 19.9698 10.8551 19.1477 10.8551C18.3091 10.8551 17.043 9.92951 15.6785 9.95671C13.9226 9.98311 12.28 10.9743 11.379 12.5135C9.51976 15.6519 10.9064 20.2639 12.6878 22.8007C13.5788 24.0431 14.6201 25.4303 15.9829 25.3815C17.3163 25.3279 17.8143 24.5527 19.4234 24.5527C21.0176 24.5527 21.4853 25.3815 22.8752 25.3503C24.3062 25.3279 25.2071 24.1023 26.067 22.8487C27.0968 21.4247 27.5103 20.0223 27.5267 19.9503C27.4931 19.9391 24.7477 18.9175 24.7206 15.8271Z" fill="white"/>
<path d="M22.0949 8.24471C22.8121 7.37031 23.3027 6.18071 23.1665 4.97351C22.1286 5.01831 20.8305 5.67351 20.083 6.52871C19.4217 7.28231 18.8309 8.51751 18.9836 9.67911C20.1495 9.76391 21.3466 9.10551 22.0949 8.24471Z" fill="white"/>
<path d="M44.0163 25.2033H42.1529L41.1322 22.0761H37.5843L36.612 25.2033H34.7979L38.3129 14.5569H40.484L44.0163 25.2033ZM40.8245 20.7641L39.9014 17.9841C39.8038 17.7001 39.6208 17.0313 39.3509 15.9785H39.3181C39.2106 16.4313 39.0374 17.1001 38.7995 17.9841L37.8928 20.7641H40.8245Z" fill="white"/>
<path d="M53.056 21.2705C53.056 22.5761 52.6941 23.6081 51.9705 24.3657C51.3222 25.0401 50.5173 25.3769 49.5565 25.3769C48.5194 25.3769 47.7744 25.0137 47.3206 24.2873H47.2878V28.3313H45.5385V20.0537C45.5385 19.2329 45.5163 18.3905 45.4736 17.5265H47.0121L47.1097 18.7433H47.1426C47.7259 17.8265 48.6113 17.3689 49.7994 17.3689C50.7282 17.3689 51.5036 17.7265 52.1239 18.4425C52.7458 19.1593 53.056 20.1017 53.056 21.2705ZM51.2738 21.3329C51.2738 20.5857 51.1015 19.9697 50.7553 19.4849C50.377 18.9793 49.8691 18.7265 49.2324 18.7265C48.8008 18.7265 48.4086 18.8673 48.0582 19.1449C47.7071 19.4249 47.4773 19.7905 47.3698 20.2433C47.3157 20.4545 47.2886 20.6273 47.2886 20.7633V22.0433C47.2886 22.6017 47.4642 23.0729 47.8154 23.4577C48.1666 23.8425 48.6228 24.0345 49.184 24.0345C49.8429 24.0345 50.3557 23.7865 50.7225 23.2921C51.09 22.7969 51.2738 22.1441 51.2738 21.3329Z" fill="white"/>
<path d="M62.1118 21.2705C62.1118 22.5761 61.75 23.6081 61.0255 24.3657C60.3781 25.0401 59.5731 25.3769 58.6123 25.3769C57.5752 25.3769 56.8302 25.0137 56.3772 24.2873H56.3444V28.3313H54.5951V20.0537C54.5951 19.2329 54.5729 18.3905 54.5303 17.5265H56.0687L56.1664 18.7433H56.1992C56.7818 17.8265 57.6671 17.3689 58.856 17.3689C59.784 17.3689 60.5594 17.7265 61.1814 18.4425C61.8008 19.1593 62.1118 20.1017 62.1118 21.2705ZM60.3297 21.3329C60.3297 20.5857 60.1565 19.9697 59.8103 19.4849C59.432 18.9793 58.9258 18.7265 58.2882 18.7265C57.8558 18.7265 57.4644 18.8673 57.1133 19.1449C56.7621 19.4249 56.5331 19.7905 56.4257 20.2433C56.3723 20.4545 56.3444 20.6273 56.3444 20.7633V22.0433C56.3444 22.6017 56.52 23.0729 56.8696 23.4577C57.2207 23.8417 57.6769 24.0345 58.2398 24.0345C58.8987 24.0345 59.4115 23.7865 59.7783 23.2921C60.1459 22.7969 60.3297 22.1441 60.3297 21.3329Z" fill="white"/>
<path d="M72.237 22.2176C72.237 23.1232 71.9146 23.86 71.2672 24.4288C70.5558 25.0504 69.5655 25.3608 68.2928 25.3608C67.1179 25.3608 66.1759 25.14 65.4629 24.6976L65.8682 23.276C66.6362 23.7288 67.4789 23.956 68.397 23.956C69.0559 23.956 69.5687 23.8104 69.9371 23.5208C70.3039 23.2312 70.4869 22.8424 70.4869 22.3576C70.4869 21.9256 70.3359 21.5616 70.0331 21.2664C69.732 20.9712 69.229 20.6968 68.5267 20.4432C66.6149 19.748 65.6598 18.7296 65.6598 17.3904C65.6598 16.5152 65.9946 15.7976 66.6649 15.2392C67.3328 14.68 68.2239 14.4008 69.3382 14.4008C70.3318 14.4008 71.1573 14.5696 71.8161 14.9064L71.3788 16.2968C70.7634 15.9704 70.0676 15.8072 69.2889 15.8072C68.6736 15.8072 68.1927 15.9552 67.8481 16.2496C67.5568 16.5128 67.4108 16.8336 67.4108 17.2136C67.4108 17.6344 67.5774 17.9824 67.9121 18.256C68.2034 18.5088 68.7326 18.7824 69.5006 19.0776C70.4401 19.4464 71.1302 19.8776 71.5741 20.372C72.0163 20.8648 72.237 21.4816 72.237 22.2176Z" fill="white"/>
<path d="M78.0209 18.8063H76.0927V22.5335C76.0927 23.4815 76.4324 23.9551 77.1134 23.9551C77.426 23.9551 77.6853 23.9287 77.8904 23.8759L77.9389 25.1711C77.5942 25.2967 77.1405 25.3599 76.5784 25.3599C75.8876 25.3599 75.3477 25.1543 74.9579 24.7439C74.5698 24.3327 74.3745 23.6431 74.3745 22.6743V18.8047H73.2258V17.5247H74.3745V16.1191L76.0927 15.6135V17.5247H78.0209V18.8063Z" fill="white"/>
<path d="M86.7208 21.3016C86.7208 22.4816 86.3745 23.4504 85.6837 24.208C84.9591 24.988 83.9975 25.3768 82.7987 25.3768C81.6435 25.3768 80.7237 25.0032 80.0377 24.256C79.3518 23.5088 79.0088 22.5656 79.0088 21.4288C79.0088 20.2392 79.3616 19.2648 80.0697 18.5072C80.7762 17.7488 81.7296 17.3696 82.9284 17.3696C84.0837 17.3696 85.0133 17.7432 85.7148 18.4912C86.386 19.2168 86.7208 20.1536 86.7208 21.3016ZM84.9058 21.3568C84.9058 20.6488 84.7507 20.0416 84.4365 19.5352C84.0697 18.9224 83.5454 18.6168 82.866 18.6168C82.1628 18.6168 81.6287 18.9232 81.2619 19.5352C80.9477 20.0424 80.7926 20.6592 80.7926 21.3888C80.7926 22.0968 80.9477 22.704 81.2619 23.2096C81.6402 23.8224 82.1686 24.128 82.8504 24.128C83.5183 24.128 84.0426 23.816 84.4209 23.1936C84.7434 22.6776 84.9058 22.064 84.9058 21.3568Z" fill="white"/>
<path d="M92.4069 19.0265C92.2337 18.9953 92.0491 18.9793 91.8555 18.9793C91.2401 18.9793 90.7642 19.2057 90.4294 19.6593C90.1381 20.0593 89.9921 20.5649 89.9921 21.1753V25.2033H88.2436L88.26 19.9441C88.26 19.0593 88.2378 18.2537 88.1943 17.5273H89.718L89.782 18.9961H89.8304C90.0151 18.4913 90.3063 18.0849 90.7051 17.7801C91.0949 17.5057 91.5158 17.3689 91.9695 17.3689C92.1312 17.3689 92.2772 17.3801 92.4069 17.4001V19.0265Z" fill="white"/>
<path d="M100.23 21.0016C100.23 21.3072 100.21 21.5648 100.166 21.7752H94.9185C94.939 22.5336 95.1925 23.1136 95.6799 23.5136C96.1222 23.8712 96.6941 24.0504 97.3964 24.0504C98.1735 24.0504 98.8824 23.9296 99.5199 23.6872L99.794 24.8712C99.0489 25.188 98.1694 25.3456 97.1544 25.3456C95.9335 25.3456 94.9751 24.9952 94.2777 24.2952C93.5819 23.5952 93.2332 22.6552 93.2332 21.476C93.2332 20.3184 93.5573 19.3544 94.2063 18.5856C94.8857 17.7648 95.8038 17.3544 96.9591 17.3544C98.0939 17.3544 98.9529 17.7648 99.5363 18.5856C99.9983 19.2376 100.23 20.044 100.23 21.0016ZM98.5624 20.5592C98.5739 20.0536 98.4598 19.6168 98.2227 19.248C97.9199 18.7736 97.4547 18.5368 96.8286 18.5368C96.2567 18.5368 95.7915 18.768 95.4362 19.232C95.145 19.6008 94.9718 20.0432 94.9185 20.5584H98.5624V20.5592Z" fill="white"/>
<path d="M40.2461 8.00721C40.2461 8.94881 39.9565 9.65761 39.378 10.1336C38.8422 10.5728 38.0808 10.7928 37.0945 10.7928C36.6055 10.7928 36.187 10.772 35.8367 10.7304V5.58561C36.2937 5.51361 36.786 5.47681 37.3177 5.47681C38.2572 5.47681 38.9653 5.67601 39.4428 6.07441C39.9778 6.52481 40.2461 7.16881 40.2461 8.00721ZM39.3394 8.03041C39.3394 7.42001 39.1737 6.95201 38.8422 6.62561C38.5107 6.30001 38.0266 6.13681 37.3891 6.13681C37.1183 6.13681 36.8877 6.15441 36.6966 6.19121V10.1024C36.8024 10.1184 36.9961 10.1256 37.2775 10.1256C37.9355 10.1256 38.4434 9.94721 38.8012 9.59041C39.1589 9.23361 39.3394 8.71361 39.3394 8.03041Z" fill="white"/>
<path d="M45.0534 8.82964C45.0534 9.40964 44.8836 9.88484 44.5439 10.2576C44.1878 10.6408 43.716 10.832 43.1269 10.832C42.5591 10.832 42.107 10.6488 41.7698 10.2808C41.4333 9.91364 41.2651 9.45044 41.2651 8.89204C41.2651 8.30804 41.4383 7.82884 41.7862 7.45684C42.1341 7.08484 42.6018 6.89844 43.1909 6.89844C43.7587 6.89844 44.2149 7.08164 44.5603 7.44884C44.8885 7.80564 45.0534 8.26644 45.0534 8.82964ZM44.1615 8.85684C44.1615 8.50884 44.0844 8.21044 43.931 7.96164C43.7505 7.66084 43.4937 7.51044 43.1597 7.51044C42.8143 7.51044 42.5517 7.66084 42.3712 7.96164C42.2169 8.21044 42.1406 8.51364 42.1406 8.87204C42.1406 9.22004 42.2178 9.51844 42.3712 9.76724C42.5574 10.068 42.8167 10.2184 43.1515 10.2184C43.4797 10.2184 43.7373 10.0656 43.9228 9.75924C44.082 9.50564 44.1615 9.20484 44.1615 8.85684Z" fill="white"/>
<path d="M51.4996 6.97522L50.2894 10.7464H49.5017L49.0003 9.10882C48.8731 8.70002 48.7698 8.29362 48.6894 7.89042H48.6738C48.5991 8.30482 48.4957 8.71042 48.3628 9.10882L47.8303 10.7464H47.0336L45.8955 6.97522H46.7792L47.2165 8.76802C47.3224 9.19202 47.4094 9.59602 47.4791 9.97842H47.4947C47.5587 9.66322 47.6645 9.26162 47.8139 8.77602L48.3628 6.97602H49.0635L49.5895 8.73762C49.7166 9.16722 49.82 9.58082 49.8996 9.97922H49.9234C49.9817 9.59122 50.0695 9.17762 50.186 8.73762L50.6553 6.97602H51.4996V6.97522Z" fill="white"/>
<path d="M55.9572 10.7465H55.0973V8.58652C55.0973 7.92092 54.8381 7.58812 54.3179 7.58812C54.0627 7.58812 53.8567 7.67932 53.6967 7.86252C53.5384 8.04572 53.458 8.26172 53.458 8.50892V10.7457H52.5981V8.05292C52.5981 7.72172 52.5874 7.36252 52.5669 6.97372H53.3226L53.3628 7.56332H53.3866C53.4867 7.38012 53.636 7.22892 53.8321 7.10812C54.0651 6.96732 54.3261 6.89612 54.6116 6.89612C54.9726 6.89612 55.2729 7.00972 55.5117 7.23772C55.8087 7.51692 55.9572 7.93372 55.9572 8.48732V10.7465Z" fill="white"/>
<path d="M58.3286 10.7465H57.4695V5.24487H58.3286V10.7465Z" fill="white"/>
<path d="M63.3913 8.82964C63.3913 9.40964 63.2215 9.88484 62.8818 10.2576C62.5257 10.6408 62.0531 10.832 61.4648 10.832C60.8962 10.832 60.4441 10.6488 60.1076 10.2808C59.7712 9.91364 59.603 9.45044 59.603 8.89204C59.603 8.30804 59.7762 7.82884 60.1241 7.45684C60.472 7.08484 60.9396 6.89844 61.528 6.89844C62.0966 6.89844 62.5519 7.08164 62.8982 7.44884C63.2264 7.80564 63.3913 8.26644 63.3913 8.82964ZM62.4986 8.85684C62.4986 8.50884 62.4215 8.21044 62.2681 7.96164C62.0884 7.66084 61.8307 7.51044 61.4976 7.51044C61.1513 7.51044 60.8888 7.66084 60.7091 7.96164C60.5548 8.21044 60.4785 8.51364 60.4785 8.87204C60.4785 9.22004 60.5556 9.51844 60.7091 9.76724C60.8953 10.068 61.1546 10.2184 61.4894 10.2184C61.8176 10.2184 62.0744 10.0656 62.2598 9.75924C62.4198 9.50564 62.4986 9.20484 62.4986 8.85684Z" fill="white"/>
<path d="M67.5528 10.7464H66.7807L66.7167 10.312H66.6929C66.4287 10.6584 66.0521 10.832 65.5631 10.832C65.198 10.832 64.9026 10.7176 64.6802 10.4904C64.4784 10.284 64.3774 10.0272 64.3774 9.72244C64.3774 9.26164 64.5744 8.91044 64.9707 8.66724C65.3662 8.42404 65.9225 8.30484 66.6388 8.31044V8.24004C66.6388 7.74324 66.3713 7.49524 65.8355 7.49524C65.454 7.49524 65.1175 7.58884 64.8271 7.77444L64.6523 7.22404C65.0117 7.00724 65.4556 6.89844 65.9791 6.89844C66.99 6.89844 67.497 7.41844 67.497 8.45844V9.84724C67.497 10.224 67.5159 10.524 67.5528 10.7464ZM66.6601 9.45044V8.86884C65.7116 8.85284 65.2373 9.10644 65.2373 9.62884C65.2373 9.82564 65.2915 9.97284 65.4023 10.0712C65.513 10.1696 65.6542 10.2184 65.8224 10.2184C66.0111 10.2184 66.1875 10.16 66.3483 10.044C66.51 9.92724 66.6092 9.77924 66.6462 9.59764C66.6552 9.55684 66.6601 9.50724 66.6601 9.45044Z" fill="white"/>
<path d="M72.4389 10.7465H71.6758L71.6356 10.1409H71.6118C71.3681 10.6017 70.9529 10.8321 70.3696 10.8321C69.9035 10.8321 69.5154 10.6537 69.2077 10.2969C68.9 9.94007 68.7466 9.47687 68.7466 8.90807C68.7466 8.29767 68.9131 7.80327 69.2479 7.42567C69.572 7.07367 69.9691 6.89767 70.4418 6.89767C70.9611 6.89767 71.3246 7.06807 71.5314 7.40967H71.5478V5.24487H72.4085V9.73047C72.4085 10.0977 72.4184 10.4361 72.4389 10.7465ZM71.5478 9.15607V8.52727C71.5478 8.41847 71.5396 8.33047 71.524 8.26327C71.4756 8.06167 71.3714 7.89207 71.213 7.75527C71.053 7.61847 70.8602 7.54967 70.6379 7.54967C70.317 7.54967 70.066 7.67367 69.8813 7.92247C69.6984 8.17127 69.6057 8.48887 69.6057 8.87687C69.6057 9.24967 69.6934 9.55207 69.8699 9.78487C70.0561 10.0329 70.3072 10.1569 70.6214 10.1569C70.9037 10.1569 71.1293 10.0537 71.3008 9.84647C71.4666 9.65527 71.5478 9.42487 71.5478 9.15607Z" fill="white"/>
<path d="M79.7932 8.82964C79.7932 9.40964 79.6233 9.88484 79.2836 10.2576C78.9275 10.6408 78.4566 10.832 77.8666 10.832C77.2997 10.832 76.8476 10.6488 76.5095 10.2808C76.1731 9.91364 76.0049 9.45044 76.0049 8.89204C76.0049 8.30804 76.178 7.82884 76.5259 7.45684C76.8738 7.08484 77.3415 6.89844 77.9314 6.89844C78.4984 6.89844 78.9554 7.08164 79.3001 7.44884C79.6283 7.80564 79.7932 8.26644 79.7932 8.82964ZM78.9021 8.85684C78.9021 8.50884 78.825 8.21044 78.6715 7.96164C78.4902 7.66084 78.2342 7.51044 77.8994 7.51044C77.5548 7.51044 77.2923 7.66084 77.1109 7.96164C76.9567 8.21044 76.8804 8.51364 76.8804 8.87204C76.8804 9.22004 76.9575 9.51844 77.1109 9.76724C77.2972 10.068 77.5565 10.2184 77.8912 10.2184C78.2194 10.2184 78.4779 10.0656 78.6633 9.75924C78.8217 9.50564 78.9021 9.20484 78.9021 8.85684Z" fill="white"/>
<path d="M84.4169 10.7465H83.5578V8.58652C83.5578 7.92092 83.2985 7.58812 82.7775 7.58812C82.5223 7.58812 82.3164 7.67932 82.1572 7.86252C81.998 8.04572 81.9184 8.26172 81.9184 8.50892V10.7457H81.0577V8.05292C81.0577 7.72172 81.0479 7.36252 81.0273 6.97372H81.7822L81.8224 7.56332H81.8462C81.9471 7.38012 82.0965 7.22892 82.2918 7.10812C82.5256 6.96732 82.7857 6.89612 83.0721 6.89612C83.4323 6.89612 83.7326 7.00972 83.9713 7.23772C84.2692 7.51692 84.4169 7.93372 84.4169 8.48732V10.7465Z" fill="white"/>
<path d="M90.2038 7.60321H89.257V9.43521C89.257 9.90081 89.4252 10.1336 89.7583 10.1336C89.9125 10.1336 90.0406 10.1208 90.1415 10.0944L90.1636 10.7304C89.9938 10.7928 89.7706 10.824 89.4957 10.824C89.156 10.824 88.8918 10.7232 88.7007 10.5216C88.5087 10.32 88.4135 9.98081 88.4135 9.50481V7.60321H87.8481V6.97521H88.4135V6.28401L89.2561 6.03601V6.97441H90.203V7.60321H90.2038Z" fill="white"/>
<path d="M94.7562 10.7465H93.8954V8.60247C93.8954 7.92647 93.6362 7.58807 93.1168 7.58807C92.718 7.58807 92.4456 7.78407 92.2963 8.17607C92.2708 8.25847 92.2561 8.35927 92.2561 8.47767V10.7457H91.397V5.24487H92.2561V7.51767H92.2725C92.5432 7.10407 92.9313 6.89767 93.4343 6.89767C93.7904 6.89767 94.085 7.01127 94.3188 7.23927C94.6101 7.52327 94.7562 7.94567 94.7562 8.50407V10.7465Z" fill="white"/>
<path d="M99.452 8.68243C99.452 8.83283 99.4405 8.95923 99.42 9.06243H96.8411C96.8526 9.43524 96.9756 9.71924 97.2144 9.91604C97.4327 10.092 97.7141 10.18 98.0587 10.18C98.4403 10.18 98.7882 10.1208 99.1016 10.0016L99.2362 10.584C98.8694 10.7392 98.4378 10.8168 97.9381 10.8168C97.3391 10.8168 96.8673 10.6448 96.526 10.3008C96.183 9.95684 96.0132 9.49524 96.0132 8.91604C96.0132 8.34724 96.1715 7.87363 96.4907 7.49603C96.8239 7.09283 97.2743 6.89124 97.8429 6.89124C98.3992 6.89124 98.8218 7.09283 99.1073 7.49603C99.3379 7.81603 99.452 8.21203 99.452 8.68243ZM98.6314 8.46563C98.638 8.21683 98.5814 8.00244 98.4649 7.82164C98.3155 7.58884 98.0883 7.47204 97.7806 7.47204C97.5 7.47204 97.271 7.58564 97.0963 7.81364C96.9535 7.99524 96.869 8.21203 96.8411 8.46563H98.6314Z" fill="white"/>
</svg>
