<svg width="170" height="80" viewBox="0 0 170 80" fill="none" xmlns="http://www.w3.org/2000/svg">
<path d="M83.8715 24.2314L65.3275 24.1142C64.2075 24.1071 63.3604 24.3871 62.7862 24.9541C62.2121 25.4999 61.9217 26.3117 61.9149 27.3895L61.7712 50.1178L53.5295 50.0657L53.6731 27.3374C53.682 25.9215 53.8697 24.6547 54.236 23.5369C54.6023 22.4192 55.084 21.4395 55.6811 20.5979C56.2994 19.7353 57.0014 19.0107 57.7871 18.4239C58.5728 17.816 59.3896 17.3245 60.2373 16.9494C61.1062 16.5745 61.9743 16.3053 62.8419 16.1417C63.7306 15.9571 64.5554 15.8672 65.3162 15.872L83.9236 15.9896L83.8715 24.2314Z" fill="#56BD93"/>
<path d="M121.809 39.1484C121.802 40.2896 121.594 41.5246 121.184 42.8534C120.774 44.1611 120.111 45.3827 119.195 46.5181C118.3 47.6325 117.122 48.5655 115.659 49.3171C114.217 50.0688 112.46 50.4381 110.389 50.425L95.5224 50.3311C94.3813 50.3239 93.1463 50.1153 91.8174 49.7054C90.5097 49.2956 89.2881 48.6433 88.1525 47.7485C87.0383 46.8327 86.1053 45.6539 85.3536 44.212C84.602 42.7491 84.2327 40.9821 84.2458 38.9111C84.253 37.7699 84.4616 36.5349 84.8716 35.2061C85.2815 33.8772 85.9338 32.6556 86.8284 31.5412C87.7444 30.4058 88.9232 29.4622 90.3651 28.7105C91.828 27.9589 93.595 27.5897 95.6661 27.6028L110.533 27.6967L110.483 35.5581L95.6164 35.4642C94.4963 35.4571 93.6277 35.8003 93.0104 36.4938C92.3933 37.1662 92.0815 38.0096 92.0751 39.0239C92.0683 40.1017 92.4117 40.9492 93.1052 41.5665C93.82 42.1627 94.6634 42.4639 95.6355 42.4701L110.439 42.5636C111.559 42.5707 112.428 42.2381 113.045 41.5657C113.662 40.8933 113.974 40.0499 113.98 39.0356L114.053 27.5287C114.06 26.451 113.727 25.593 113.055 24.9547C112.404 24.3166 111.571 23.9943 110.556 23.9879L92.4562 23.8735L92.5056 16.0438L110.606 16.1582C111.747 16.1654 112.971 16.3739 114.279 16.7837C115.608 17.1937 116.83 17.8565 117.944 18.7723C119.079 19.6671 120.023 20.846 120.775 22.3089C121.526 23.7508 121.896 25.5072 121.882 27.5782L121.809 39.1484Z" fill="#56BD93"/>
<path d="M166.498 39.2089C166.493 39.9908 166.393 40.8144 166.197 41.6796C166.023 42.545 165.743 43.4097 165.357 44.2738C164.971 45.1167 164.469 45.9271 163.851 46.7052C163.255 47.4834 162.521 48.1761 161.651 48.7835C160.802 49.3699 159.816 49.8392 158.694 50.1914C157.572 50.5435 156.302 50.7152 154.887 50.7062L140.02 50.6123C139.238 50.6073 138.414 50.5176 137.549 50.343C136.683 50.1474 135.819 49.8566 134.955 49.4707C134.112 49.085 133.301 48.5938 132.523 47.9972C131.745 47.3794 131.052 46.6459 130.445 45.7967C129.859 44.9265 129.389 43.9303 129.037 42.808C128.685 41.6645 128.514 40.3848 128.523 38.9689L128.758 1.78579L136.999 1.83787L136.764 39.021C136.758 40.0354 137.07 40.851 137.7 41.4679C138.33 42.0636 139.121 42.3645 140.072 42.3705L154.939 42.4644C155.974 42.471 156.779 42.1696 157.354 41.5604C157.949 40.9512 158.25 40.1501 158.256 39.1568L158.327 27.9987C158.333 26.9632 158.032 26.1582 157.423 25.5838C156.814 24.9882 156.023 24.6873 155.051 24.6812L140.184 24.5872L140.236 16.3454L155.103 16.4394C155.885 16.4443 156.709 16.5446 157.574 16.7403C158.439 16.9148 159.293 17.195 160.136 17.5807C161 17.9666 161.821 18.4684 162.599 19.0862C163.378 19.6828 164.06 20.4163 164.646 21.2864C165.232 22.1355 165.702 23.1212 166.054 24.2435C166.406 25.3658 166.578 26.6349 166.569 28.0508L166.498 39.2089Z" fill="#56BD93"/>
<path d="M137.773 57.3963L134.721 70.3886L132.579 70.4406L129.528 60.6934L127.094 70.5737L124.717 70.6313L121.014 57.8028L123.238 57.7489L125.804 67.8611L128.382 57.6241L130.465 57.5736L133.359 67.6778L135.455 57.4525L137.773 57.3963Z" fill="#2C7055"/>
<path d="M150.086 70.0159L148.25 70.0604L147.828 68.2218C147.612 69.0357 147.198 69.5874 146.585 69.8771C145.979 70.1587 145.084 70.3139 143.899 70.3426C143.115 70.3616 142.469 70.3027 141.964 70.1658C141.458 70.0211 141.051 69.7719 140.744 69.4182C140.438 69.0645 140.219 68.6302 140.089 68.1152C139.966 67.5921 139.895 66.9187 139.875 66.0949C139.866 65.7261 139.921 65.395 140.039 65.1017C140.165 64.8082 140.336 64.5567 140.551 64.3474C140.773 64.1379 141.067 63.9541 141.432 63.7961C141.805 63.6379 142.191 63.5108 142.589 63.4147C142.987 63.3187 143.468 63.2403 144.032 63.1796C144.603 63.1107 145.159 63.0619 145.7 63.0331C146.241 63.0043 146.873 62.9811 147.595 62.9636L147.51 59.4681C147.5 59.068 147.305 58.798 146.925 58.658C146.544 58.5102 145.872 58.448 144.907 58.4715C144.232 58.4878 143.726 58.5158 143.39 58.5554C143.053 58.5949 142.796 58.6954 142.62 58.8567C142.451 59.0099 142.352 59.1615 142.325 59.3113C142.305 59.461 142.296 59.7399 142.298 60.1481C142.293 60.2973 142.292 60.4151 142.295 60.5014L140.492 60.4745C140.473 60.3493 140.461 60.1651 140.455 59.9219C140.442 59.3962 140.506 58.9511 140.647 58.5866C140.794 58.214 140.988 57.9228 141.226 57.7129C141.464 57.4951 141.793 57.3223 142.214 57.1943C142.635 57.0663 143.053 56.9816 143.468 56.9401C143.883 56.8987 144.401 56.8704 145.021 56.8554C145.962 56.8325 146.729 56.8885 147.321 57.0233C147.913 57.1503 148.402 57.3975 148.787 57.765C149.173 58.1324 149.444 58.6087 149.599 59.1937C149.762 59.7707 149.855 60.53 149.878 61.4715L150.086 70.0159ZM147.677 66.3766L147.629 64.3641C146.083 64.4016 144.896 64.4893 144.067 64.6272C143.238 64.765 142.685 64.9433 142.408 65.162C142.138 65.3727 142.008 65.6663 142.017 66.0429C142.017 66.0586 142.018 66.0821 142.018 66.1135C142.047 67.3061 142.163 68.0452 142.367 68.3307C142.57 68.6163 143.174 68.7469 144.178 68.7225C145.033 68.7018 145.725 68.5829 146.254 68.366C146.782 68.149 147.145 67.8812 147.341 67.5624C147.545 67.2356 147.657 66.8403 147.677 66.3766Z" fill="#2C7055"/>
<path d="M163.172 56.7801L159.398 69.1658C159.303 69.4665 159.202 69.8261 159.094 70.2448C158.995 70.6712 158.909 71.0148 158.837 71.2756C158.772 71.5362 158.685 71.821 158.575 72.1298C158.473 72.4463 158.357 72.6964 158.228 72.8801C158.099 73.0717 157.939 73.2522 157.746 73.4217C157.554 73.5991 157.322 73.7264 157.049 73.8037C156.776 73.8888 156.46 73.9358 156.099 73.9445C155.165 73.9672 154.315 73.8975 153.55 73.7355L153.86 71.938C154.009 71.9501 154.21 71.9727 154.462 72.0058C154.714 72.0468 154.931 72.0769 155.112 72.0961C155.301 72.115 155.474 72.1226 155.63 72.1188C156.133 72.1066 156.509 71.9248 156.76 71.5733C157.01 71.2218 157.128 70.5791 157.113 69.6452L151.968 57.0519L154.31 56.9951L156.846 63.4928C157.307 64.6749 157.734 65.7911 158.129 66.8414C158.364 65.8858 158.713 64.5662 159.175 62.8828L160.806 56.8375L163.172 56.7801Z" fill="#2C7055"/>
<path fill-rule="evenodd" clip-rule="evenodd" d="M138.283 56.9818L135.041 70.7827L132.286 70.8496L129.574 62.1861L127.411 70.9678L124.417 71.0405L120.484 57.4137L123.549 57.3393L125.802 66.2212L128.067 57.2297L130.765 57.1642L133.295 65.9924L135.125 57.0585L138.283 56.9818ZM133.359 67.6778L130.465 57.5735L128.382 57.624L125.804 67.8611L123.238 57.7488L121.014 57.8028L124.717 70.6312L127.094 70.5736L129.528 60.6933L132.579 70.4405L134.721 70.3886L137.773 57.3962L135.455 57.4524L133.359 67.6778ZM150.497 70.4078L147.931 70.47L147.699 69.4571C147.454 69.7941 147.141 70.0588 146.756 70.2403L146.754 70.2414C146.074 70.5578 145.113 70.715 143.909 70.7442C143.103 70.7638 142.416 70.7043 141.859 70.5536L141.856 70.5529L141.853 70.5521C141.282 70.3886 140.805 70.1011 140.441 69.6815C140.088 69.2743 139.843 68.7813 139.699 68.2136L139.698 68.2102L139.697 68.2068C139.566 67.6467 139.493 66.943 139.473 66.1045C139.463 65.6899 139.524 65.3031 139.667 64.9511L139.668 64.9469L139.67 64.9428C139.816 64.6041 140.015 64.308 140.27 64.0596L140.273 64.0571L140.275 64.0547C140.54 63.8053 140.877 63.5985 141.273 63.4272L141.274 63.4266L141.275 63.4261C141.669 63.2592 142.075 63.1252 142.495 63.024C142.914 62.9229 143.412 62.8422 143.986 62.7802C144.565 62.7106 145.129 62.661 145.679 62.6317C146.122 62.6082 146.623 62.5884 147.183 62.5724L147.108 59.4778C147.105 59.3422 147.072 59.2576 147.031 59.2006C146.989 59.1434 146.918 59.0834 146.786 59.035L146.783 59.0338L146.779 59.0325C146.481 58.9167 145.882 58.8497 144.916 58.8731C144.244 58.8894 143.754 58.9171 143.437 58.9544C143.15 58.9881 142.984 59.068 142.891 59.1533L142.89 59.1543C142.764 59.2678 142.73 59.3435 142.721 59.3775C142.706 59.501 142.698 59.75 142.7 60.146L142.7 60.1527L142.699 60.1594C142.695 60.3059 142.694 60.4156 142.696 60.4916L142.706 60.9094L140.145 60.8711L140.095 60.5339C140.072 60.3835 140.059 60.1793 140.053 59.9316C140.04 59.3704 140.107 58.8696 140.272 58.4422L140.272 58.4402L140.273 58.4382C140.438 58.0231 140.662 57.6747 140.958 57.4137C141.253 57.1449 141.64 56.9488 142.097 56.8098C142.542 56.6746 142.986 56.5844 143.428 56.5402C143.857 56.4974 144.385 56.4688 145.011 56.4536C145.968 56.4304 146.771 56.4862 147.408 56.6309C148.061 56.7714 148.619 57.0492 149.065 57.4739C149.51 57.8986 149.815 58.442 149.987 59.0874C150.162 59.7093 150.257 60.5049 150.28 61.4617L150.497 70.4078ZM149.599 59.1936C149.444 58.6086 149.173 58.1324 148.787 57.7649C148.402 57.3974 147.913 57.1502 147.321 57.0232C146.729 56.8884 145.962 56.8325 145.021 56.8553C144.401 56.8703 143.883 56.8986 143.468 56.9401C143.053 56.9815 142.635 57.0663 142.214 57.1942C141.793 57.3222 141.464 57.4951 141.226 57.7128C140.988 57.9227 140.795 58.2139 140.647 58.5865C140.506 58.951 140.442 59.3962 140.455 59.9218C140.461 60.1651 140.473 60.3493 140.492 60.4744L142.295 60.5014C142.292 60.415 142.294 60.2973 142.298 60.148C142.298 60.1316 142.298 60.1155 142.298 60.0995C142.296 59.7176 142.305 59.4549 142.325 59.3112C142.352 59.1614 142.451 59.0099 142.62 58.8566C142.796 58.6953 143.053 58.5949 143.39 58.5553C143.726 58.5157 144.232 58.4878 144.907 58.4714C145.872 58.448 146.544 58.5102 146.925 58.6579C147.305 58.7979 147.5 59.0679 147.51 59.4681L147.595 62.9635C146.873 62.981 146.241 63.0042 145.7 63.033C145.159 63.0618 144.603 63.1107 144.032 63.1795C143.468 63.2403 142.987 63.3187 142.589 63.4147C142.191 63.5107 141.805 63.6378 141.432 63.796C141.067 63.954 140.773 64.1378 140.551 64.3473C140.336 64.5566 140.165 64.8081 140.039 65.1016C139.921 65.395 139.866 65.726 139.875 66.0948C139.895 66.9186 139.966 67.5921 140.089 68.1151C140.219 68.6301 140.438 69.0644 140.744 69.4181C141.051 69.7718 141.458 70.021 141.964 70.1657C142.47 70.3026 143.115 70.3616 143.899 70.3425C145.084 70.3138 145.979 70.1586 146.585 69.877C147.009 69.6768 147.338 69.3513 147.571 68.9006C147.676 68.6993 147.762 68.473 147.828 68.2217L148.25 70.0603L150.086 70.0158L149.878 61.4714C149.855 60.5299 149.762 59.7706 149.599 59.1936ZM142.656 65.4775L142.655 65.4786C142.497 65.6023 142.412 65.7687 142.419 66.0331L142.42 66.1035C142.434 66.6912 142.47 67.1548 142.524 67.4999C142.581 67.8624 142.651 68.0369 142.694 68.0977C142.707 68.1159 142.785 68.1912 143.057 68.25C143.314 68.3057 143.681 68.3326 144.168 68.3207C144.996 68.3006 145.635 68.1856 146.101 67.9942C146.59 67.7935 146.865 67.5689 146.999 67.3515L147 67.3495C147.159 67.0952 147.256 66.7746 147.275 66.3723L147.237 64.7769C145.894 64.819 144.862 64.9021 144.133 65.0235C143.73 65.0905 143.405 65.1656 143.154 65.2466C142.897 65.3293 142.741 65.4107 142.656 65.4775ZM147.227 64.3752C147.358 64.3711 147.492 64.3673 147.629 64.364L147.677 66.3765C147.657 66.8402 147.545 67.2355 147.341 67.5623C147.145 67.8811 146.782 68.149 146.254 68.3659C145.725 68.5829 145.033 68.7017 144.178 68.7224C143.174 68.7468 142.57 68.6162 142.367 68.3307C142.164 68.0451 142.047 67.306 142.019 66.1134L142.017 66.0428C142.008 65.6662 142.138 65.3726 142.408 65.1619C142.685 64.9432 143.238 64.7649 144.067 64.6271C144.822 64.5014 145.876 64.4174 147.227 64.3752ZM163.718 56.3648L159.782 69.2847L159.781 69.2866C159.689 69.5773 159.591 69.9283 159.485 70.3405C159.386 70.7645 159.299 71.1107 159.225 71.3773C159.158 71.6503 159.067 71.9445 158.955 72.2591C158.847 72.5932 158.718 72.8811 158.559 73.1076C158.41 73.3281 158.228 73.5319 158.016 73.7199C157.776 73.9409 157.489 74.096 157.164 74.1888C156.849 74.2865 156.495 74.3368 156.108 74.3462C155.149 74.3694 154.268 74.2981 153.467 74.1285L153.088 74.0484L153.526 71.5078L153.892 71.5374C154.051 71.5503 154.26 71.5739 154.514 71.6074L154.52 71.6082L154.526 71.6091C154.773 71.6493 154.982 71.6781 155.153 71.6963C155.328 71.7138 155.484 71.7203 155.621 71.717C156.02 71.7073 156.268 71.5707 156.432 71.34C156.51 71.2304 156.587 71.0455 156.641 70.7551C156.69 70.4842 156.716 70.1429 156.712 69.7264L151.375 56.6642L154.582 56.5865L157.22 63.3466L157.221 63.3469C157.511 64.0934 157.789 64.8137 158.054 65.5079C158.254 64.7385 158.499 63.8282 158.787 62.7772L158.787 62.7765L160.497 56.443L163.718 56.3648ZM159.175 62.8828C158.815 64.196 158.523 65.2878 158.3 66.1582C158.238 66.4035 158.18 66.6312 158.129 66.8413C158.047 66.6243 157.964 66.4044 157.88 66.1818C157.556 65.3269 157.211 64.4306 156.846 63.4927L154.31 56.995L151.968 57.0518L157.113 69.6451C157.128 70.579 157.01 71.2217 156.76 71.5732C156.509 71.9247 156.133 72.1065 155.631 72.1187C155.474 72.1225 155.301 72.115 155.112 72.096C154.931 72.0768 154.714 72.0468 154.462 72.0058C154.21 71.9726 154.009 71.95 153.86 71.9379L153.55 73.7354C154.315 73.8974 155.165 73.9671 156.099 73.9444C156.46 73.9357 156.776 73.8887 157.049 73.8036C157.322 73.7263 157.555 73.599 157.746 73.4216C157.939 73.2521 158.099 73.0716 158.228 72.88C158.357 72.6963 158.473 72.4462 158.575 72.1297C158.685 71.8209 158.772 71.5361 158.837 71.2755C158.909 71.0147 158.995 70.6711 159.094 70.2447C159.202 69.826 159.303 69.4664 159.398 69.1658L163.172 56.78L160.806 56.8374L159.175 62.8828Z" fill="#2C7055"/>
<path d="M33.0241 51.8822C40.447 51.9291 46.5026 45.9496 46.5495 38.5267C46.5964 31.1037 40.6169 25.0482 33.1939 25.0013L14.4301 24.8827L14.3776 33.1879L33.04 33.3058C35.8937 33.3239 38.1924 35.6518 38.1743 38.5055C38.1563 41.3591 35.8284 43.6578 32.9747 43.6398L12.497 43.5104C11.4404 43.5037 10.618 43.2132 10.0299 42.6389C9.46306 42.0436 9.18298 41.2176 9.18965 40.1609L9.33027 17.9081C9.33734 16.7881 9.62798 15.9445 10.2022 15.3776C10.7764 14.8106 11.6023 14.5305 12.6801 14.5373L35.0662 14.6788L35.066 14.6914C36.186 14.6985 37.0296 14.9892 37.5965 15.5633C38.1635 16.1375 38.4436 16.9635 38.4368 18.0413L38.4199 20.7104L46.6617 20.7624L46.6786 18.0934C46.6875 16.6775 46.5159 15.4084 46.1637 14.2861C45.8116 13.1638 45.3318 12.1674 44.7244 11.2971C44.138 10.4481 43.4558 9.71466 42.6778 9.09686C41.8997 8.47907 41.0787 7.97724 40.2146 7.59138C39.3717 7.20565 38.5071 6.91488 37.6207 6.71907C36.7553 6.54454 35.9423 6.45486 35.1815 6.45006L35.1478 6.43716L12.7322 6.29552C11.3163 6.28658 10.0472 6.45819 8.92489 6.81037C7.80258 7.16255 6.80626 7.64233 5.93595 8.24971C5.0869 8.83608 4.35347 9.51829 3.73568 10.2963C3.11789 11.0744 2.61606 11.8954 2.2302 12.7595C1.84446 13.6024 1.5537 14.467 1.35789 15.3534C1.18336 16.2188 1.09368 17.0318 1.08888 17.7926L0.947863 40.1089C0.938916 41.5247 1.11047 42.8044 1.46251 43.9479C1.81469 45.0702 2.2839 46.0664 2.87015 46.9366C3.47766 47.7858 4.17043 48.5193 4.94847 49.1371C5.72665 49.7337 6.53719 50.2249 7.3801 50.6106C8.24414 50.9965 9.10878 51.2873 9.97402 51.4829C10.8605 51.6576 11.6842 51.7474 12.445 51.7522L33.0241 51.8822Z" fill="#56BD93"/>
</svg>
