<svg width="111" height="32" viewBox="0 0 111 32" fill="none" xmlns="http://www.w3.org/2000/svg">
<path d="M106.672 32H4.24927C1.99698 32 0.152344 30.199 0.152344 28V4C0.152344 1.801 1.99698 1.69118e-06 4.24927 1.69118e-06H106.672C108.925 1.69118e-06 110.769 1.801 110.769 4V28C110.769 30.199 108.925 32 106.672 32Z" fill="black"/>
<path d="M106.672 0.641C108.569 0.641 110.113 2.148 110.113 4V28C110.113 29.852 108.569 31.359 106.672 31.359H4.24927C2.35239 31.359 0.808876 29.852 0.808876 28V4C0.808876 2.148 2.35239 0.641 4.24927 0.641H106.672ZM106.672 1.69118e-06H4.24927C1.99698 1.69118e-06 0.152344 1.801 0.152344 4V28C0.152344 30.199 1.99698 32 4.24927 32H106.672C108.925 32 110.769 30.199 110.769 28V4C110.769 1.801 108.925 1.69118e-06 106.672 1.69118e-06Z" fill="#A6A6A6"/>
<path d="M39.0055 8.19494C39.0055 8.86294 38.8006 9.39794 38.3971 9.79694C37.9331 10.2699 37.3288 10.5079 36.5883 10.5079C35.8805 10.5079 35.2762 10.2659 34.7805 9.78894C34.2837 9.30494 34.0359 8.71094 34.0359 7.99994C34.0359 7.28894 34.2837 6.69494 34.7805 6.21494C35.2762 5.73394 35.8805 5.49194 36.5883 5.49194C36.9406 5.49194 37.2766 5.56294 37.5971 5.69494C37.9167 5.82794 38.1769 6.00794 38.3653 6.22994L37.9372 6.65194C37.6084 6.27294 37.1608 6.08594 36.5883 6.08594C36.0721 6.08594 35.6245 6.26194 35.2445 6.61694C34.8686 6.97294 34.6801 7.43394 34.6801 7.99994C34.6801 8.56594 34.8686 9.03094 35.2445 9.38694C35.6245 9.73794 36.0721 9.91794 36.5883 9.91794C37.1362 9.91794 37.5971 9.73794 37.9607 9.38294C38.2004 9.14794 38.3366 8.82394 38.3725 8.40994H36.5883V7.83194H38.9686C38.9973 7.95694 39.0055 8.07794 39.0055 8.19494Z" fill="white" stroke="white" stroke-width="0.16" stroke-miterlimit="10"/>
<path d="M42.782 6.19105H40.5461V7.71105H42.5617V8.28905H40.5461V9.80905H42.782V10.398H39.9131V5.60205H42.782V6.19105Z" fill="white" stroke="white" stroke-width="0.16" stroke-miterlimit="10"/>
<path d="M45.4468 10.398H44.8138V6.19105H43.4424V5.60205H46.8193V6.19105H45.4468V10.398Z" fill="white" stroke="white" stroke-width="0.16" stroke-miterlimit="10"/>
<path d="M49.2632 10.398V5.60205H49.8951V10.398H49.2632Z" fill="white" stroke="white" stroke-width="0.16" stroke-miterlimit="10"/>
<path d="M52.6963 10.398H52.0685V6.19105H50.6919V5.60205H54.0729V6.19105H52.6963V10.398Z" fill="white" stroke="white" stroke-width="0.16" stroke-miterlimit="10"/>
<path d="M60.4661 9.78094C59.9817 10.2659 59.3815 10.5079 58.6655 10.5079C57.9455 10.5079 57.3453 10.2659 56.8609 9.78094C56.3774 9.29694 56.1367 8.70294 56.1367 7.99994C56.1367 7.29694 56.3774 6.70294 56.8609 6.21894C57.3453 5.73394 57.9455 5.49194 58.6655 5.49194C59.3774 5.49194 59.9776 5.73394 60.4621 6.22294C60.9496 6.71094 61.1903 7.30094 61.1903 7.99994C61.1903 8.70294 60.9496 9.29694 60.4661 9.78094ZM57.3289 9.37894C57.6936 9.73794 58.137 9.91794 58.6655 9.91794C59.19 9.91794 59.6375 9.73794 59.9981 9.37894C60.3617 9.01994 60.546 8.55894 60.546 7.99994C60.546 7.44094 60.3617 6.97994 59.9981 6.62094C59.6375 6.26194 59.19 6.08194 58.6655 6.08194C58.137 6.08194 57.6936 6.26194 57.3289 6.62094C56.9653 6.97994 56.781 7.44094 56.781 7.99994C56.781 8.55894 56.9653 9.01994 57.3289 9.37894Z" fill="white" stroke="white" stroke-width="0.16" stroke-miterlimit="10"/>
<path d="M62.0784 10.398V5.60205H62.8465L65.2351 9.33205H65.2627L65.2351 8.41005V5.60205H65.867V10.398H65.2074L62.7062 6.48405H62.6786L62.7062 7.41005V10.398H62.0784Z" fill="white" stroke="white" stroke-width="0.16" stroke-miterlimit="10"/>
<path d="M55.981 17.402C54.0565 17.402 52.4843 18.832 52.4843 20.805C52.4843 22.762 54.0565 24.207 55.981 24.207C57.9096 24.207 59.4818 22.762 59.4818 20.805C59.4818 18.832 57.9096 17.402 55.981 17.402ZM55.981 22.867C54.925 22.867 54.0165 22.016 54.0165 20.805C54.0165 19.578 54.925 18.742 55.981 18.742C57.037 18.742 57.9496 19.578 57.9496 20.805C57.9496 22.016 57.037 22.867 55.981 22.867ZM48.3515 17.402C46.4229 17.402 44.8548 18.832 44.8548 20.805C44.8548 22.762 46.4229 24.207 48.3515 24.207C50.2791 24.207 51.8482 22.762 51.8482 20.805C51.8482 18.832 50.2791 17.402 48.3515 17.402ZM48.3515 22.867C47.2945 22.867 46.3829 22.016 46.3829 20.805C46.3829 19.578 47.2945 18.742 48.3515 18.742C49.4075 18.742 50.316 19.578 50.316 20.805C50.316 22.016 49.4075 22.867 48.3515 22.867ZM39.2727 18.445V19.891H42.8094C42.706 20.699 42.4294 21.293 42.0054 21.707C41.4892 22.207 40.6851 22.762 39.2727 22.762C37.0962 22.762 35.3919 21.047 35.3919 18.922C35.3919 16.797 37.0962 15.082 39.2727 15.082C40.4496 15.082 41.3058 15.531 41.9378 16.113L42.9815 15.094C42.0976 14.27 40.9217 13.637 39.2727 13.637C36.2881 13.637 33.7798 16.008 33.7798 18.922C33.7798 21.836 36.2881 24.207 39.2727 24.207C40.8859 24.207 42.0976 23.691 43.0501 22.723C44.0262 21.77 44.3304 20.43 44.3304 19.348C44.3304 19.012 44.3017 18.703 44.2505 18.445H39.2727ZM76.397 19.566C76.1092 18.805 75.2212 17.402 73.4124 17.402C71.62 17.402 70.1277 18.781 70.1277 20.805C70.1277 22.711 71.6046 24.207 73.5845 24.207C75.1853 24.207 76.1092 23.254 76.4892 22.699L75.3011 21.926C74.9047 22.492 74.3649 22.867 73.5845 22.867C72.8091 22.867 72.253 22.52 71.8965 21.836L76.5578 19.953L76.397 19.566ZM71.6446 20.699C71.6046 19.387 72.6883 18.715 73.4646 18.715C74.073 18.715 74.5892 19.012 74.7613 19.437L71.6446 20.699ZM67.8559 24H69.3882V14H67.8559V24ZM65.3466 18.16H65.2954C64.9512 17.762 64.2947 17.402 63.463 17.402C61.7177 17.402 60.122 18.898 60.122 20.816C60.122 22.723 61.7177 24.207 63.463 24.207C64.2947 24.207 64.9512 23.844 65.2954 23.434H65.3466V23.922C65.3466 25.223 64.6347 25.922 63.4866 25.922C62.5504 25.922 61.9697 25.262 61.73 24.707L60.3975 25.25C60.7816 26.152 61.7986 27.262 63.4866 27.262C65.2831 27.262 66.7989 26.23 66.7989 23.719V17.609H65.3466V18.16ZM63.5941 22.867C62.5381 22.867 61.6542 22.004 61.6542 20.816C61.6542 19.617 62.5381 18.742 63.5941 18.742C64.6347 18.742 65.4552 19.617 65.4552 20.816C65.4552 22.004 64.6347 22.867 63.5941 22.867ZM83.5707 14H79.906V24H81.4342V20.211H83.5707C85.2679 20.211 86.9322 19.012 86.9322 17.105C86.9322 15.199 85.2638 14 83.5707 14ZM83.6107 18.82H81.4342V15.391H83.6107C84.7517 15.391 85.4031 16.316 85.4031 17.105C85.4031 17.879 84.7517 18.82 83.6107 18.82ZM93.0572 17.383C91.953 17.383 90.8049 17.859 90.3327 18.914L91.6888 19.469C91.9807 18.914 92.5174 18.734 93.0848 18.734C93.8776 18.734 94.6816 19.199 94.6939 20.02V20.125C94.4173 19.969 93.8253 19.738 93.0971 19.738C91.6365 19.738 90.1483 20.523 90.1483 21.988C90.1483 23.328 91.3446 24.191 92.6894 24.191C93.7178 24.191 94.2852 23.738 94.6416 23.211H94.6939V23.984H96.1698V20.148C96.1698 18.375 94.8137 17.383 93.0572 17.383ZM92.8728 22.863C92.373 22.863 91.6765 22.621 91.6765 22.016C91.6765 21.242 92.545 20.945 93.2968 20.945C93.9697 20.945 94.2852 21.09 94.6939 21.281C94.574 22.207 93.7577 22.863 92.8728 22.863ZM101.547 17.602L99.7904 21.937H99.7382L97.9222 17.602H96.2743L99.0028 23.66L97.446 27.031H99.0428L103.247 17.602H101.547ZM87.7721 24H89.3044V14H87.7721V24Z" fill="white"/>
<path d="M8.70274 6.0311C8.46205 6.2771 8.32275 6.6601 8.32275 7.1561V24.8481C8.32275 25.3441 8.46205 25.7271 8.70274 25.9731L8.76215 26.0271L18.9164 16.1171V15.8831L8.76215 5.9731L8.70274 6.0311Z" fill="url(#paint0_linear_1015_33575)"/>
<path d="M22.2972 19.422L18.9163 16.117V15.883L22.3013 12.578L22.3771 12.621L26.386 14.848C27.53 15.48 27.53 16.52 26.386 17.156L22.3771 19.379L22.2972 19.422Z" fill="url(#paint1_linear_1015_33575)"/>
<path d="M22.3771 19.379L18.9163 16L8.70264 25.973C9.08263 26.363 9.70229 26.41 10.407 26.02L22.3771 19.379Z" fill="url(#paint2_linear_1015_33575)"/>
<path d="M22.3771 12.621L10.407 5.98C9.70229 5.594 9.08263 5.641 8.70264 6.031L18.9163 16L22.3771 12.621Z" fill="url(#paint3_linear_1015_33575)"/>
<defs>
<linearGradient id="paint0_linear_1015_33575" x1="18.0148" y1="25.0323" x2="4.59273" y2="11.285" gradientUnits="userSpaceOnUse">
<stop stop-color="#00A0FF"/>
<stop offset="0.0066" stop-color="#00A1FF"/>
<stop offset="0.2601" stop-color="#00BEFF"/>
<stop offset="0.5122" stop-color="#00D2FF"/>
<stop offset="0.7604" stop-color="#00DFFF"/>
<stop offset="1" stop-color="#00E3FF"/>
</linearGradient>
<linearGradient id="paint1_linear_1015_33575" x1="27.8757" y1="15.9989" x2="8.04917" y2="15.9989" gradientUnits="userSpaceOnUse">
<stop stop-color="#FFE000"/>
<stop offset="0.4087" stop-color="#FFBD00"/>
<stop offset="0.7754" stop-color="#FFA500"/>
<stop offset="1" stop-color="#FF9C00"/>
</linearGradient>
<linearGradient id="paint2_linear_1015_33575" x1="20.4952" y1="14.1631" x2="2.2938" y2="-4.47936" gradientUnits="userSpaceOnUse">
<stop stop-color="#FF3A44"/>
<stop offset="1" stop-color="#C31162"/>
</linearGradient>
<linearGradient id="paint3_linear_1015_33575" x1="6.13165" y1="31.859" x2="14.2594" y2="23.5344" gradientUnits="userSpaceOnUse">
<stop stop-color="#32A071"/>
<stop offset="0.0685" stop-color="#2DA771"/>
<stop offset="0.4762" stop-color="#15CF74"/>
<stop offset="0.8009" stop-color="#06E775"/>
<stop offset="1" stop-color="#00F076"/>
</linearGradient>
</defs>
</svg>
