<svg width="85" height="40" viewBox="0 0 85 40" fill="none" xmlns="http://www.w3.org/2000/svg">
<path d="M41.4984 12.1158L32.2264 12.0572C31.6664 12.0536 31.2428 12.1936 30.9557 12.4771C30.6687 12.75 30.5235 13.1559 30.5201 13.6948L30.4482 25.059L26.3274 25.0329L26.3992 13.6688C26.4036 12.9608 26.4975 12.3274 26.6806 11.7685C26.8638 11.2096 27.1046 10.7198 27.4032 10.299C27.7123 9.86773 28.0633 9.50539 28.4562 9.212C28.849 8.90805 29.2574 8.66231 29.6813 8.47478C30.1157 8.28733 30.5498 8.1527 30.9835 8.07091C31.4279 7.97861 31.8403 7.93367 32.2207 7.93607L41.5244 7.99486L41.4984 12.1158Z" fill="white"/>
<path d="M60.4673 19.5743C60.4637 20.1449 60.3594 20.7624 60.1545 21.4268C59.9496 22.0806 59.6181 22.6914 59.1602 23.2591C58.7128 23.8163 58.1234 24.2828 57.3919 24.6586C56.671 25.0345 55.7928 25.2191 54.7573 25.2126L47.3238 25.1656C46.7533 25.162 46.1358 25.0577 45.4713 24.8527C44.8175 24.6478 44.2067 24.3217 43.6389 23.8743C43.0817 23.4164 42.6152 22.827 42.2394 22.1061C41.8636 21.3746 41.679 20.4911 41.6855 19.4556C41.6891 18.885 41.7934 18.2675 41.9984 17.6031C42.2034 16.9387 42.5295 16.3279 42.9768 15.7707C43.4348 15.2029 44.0242 14.7312 44.7452 14.3553C45.4766 13.9795 46.3601 13.7949 47.3956 13.8014L54.8291 13.8484L54.8043 17.7791L47.3708 17.7321C46.8108 17.7286 46.3765 17.9002 46.0678 18.247C45.7593 18.5832 45.6034 19.0048 45.6002 19.512C45.5968 20.0509 45.7685 20.4747 46.1152 20.7833C46.4726 21.0814 46.8943 21.232 47.3804 21.2351L54.7821 21.2819C55.3422 21.2854 55.7764 21.1191 56.085 20.7829C56.3936 20.4467 56.5495 20.025 56.5527 19.5178L56.589 13.7644C56.5924 13.2255 56.4261 12.7965 56.0899 12.4774C55.7644 12.1584 55.348 11.9972 54.8408 11.994L45.7907 11.9368L45.8154 8.02197L54.8656 8.07916C55.4362 8.08277 56.0484 8.18702 56.7022 8.39192C57.3666 8.59689 57.9774 8.92832 58.5346 9.38621C59.1023 9.83361 59.5741 10.423 59.9499 11.1545C60.3258 11.8755 60.5104 12.7537 60.5039 13.7892L60.4673 19.5743Z" fill="white"/>
<path d="M82.8117 19.6045C82.8092 19.9955 82.7591 20.4073 82.6613 20.8399C82.574 21.2726 82.4339 21.7049 82.241 22.1369C82.0481 22.5584 81.7972 22.9636 81.4883 23.3527C81.19 23.7417 80.8232 24.0881 80.3881 24.3918C79.9636 24.685 79.4707 24.9196 78.9096 25.0957C78.3484 25.2718 77.7139 25.3576 77.0059 25.3532L69.5725 25.3062C69.1815 25.3037 68.7697 25.2589 68.337 25.1716C67.9044 25.0737 67.472 24.9284 67.04 24.7354C66.6186 24.5426 66.2133 24.297 65.8242 23.9986C65.4352 23.6897 65.0888 23.323 64.785 22.8984C64.4919 22.4633 64.2573 21.9652 64.0812 21.404C63.9052 20.8323 63.8194 20.1925 63.8239 19.4845L63.9414 0.892956L68.0623 0.918995L67.9448 19.5106C67.9416 20.0178 68.0975 20.4256 68.4126 20.734C68.7277 21.0319 69.123 21.1823 69.5985 21.1853L77.032 21.2323C77.5497 21.2355 77.9522 21.0849 78.2394 20.7802C78.5372 20.4757 78.6877 20.0751 78.6908 19.5785L78.7261 13.9994C78.7294 13.4817 78.5787 13.0792 78.274 12.7919C77.9695 12.4941 77.5742 12.3437 77.0881 12.3406L69.6547 12.2937L69.6807 8.17278L77.1142 8.21975C77.5051 8.22222 77.9169 8.27237 78.3495 8.37021C78.7822 8.45748 79.2093 8.59754 79.6308 8.79041C80.0628 8.98334 80.4733 9.23425 80.8623 9.54315C81.2514 9.84148 81.5925 10.2082 81.8856 10.6433C82.1788 11.0678 82.4135 11.5606 82.5895 12.1218C82.7656 12.683 82.8514 13.3175 82.847 14.0255L82.8117 19.6045Z" fill="white"/>
<path d="M68.4493 28.6981L66.923 35.1943L65.852 35.2203L64.3265 30.3467L63.1098 35.2868L61.9211 35.3157L60.0697 28.9014L61.1819 28.8744L62.4645 33.9306L63.7535 28.812L64.795 28.7868L66.2424 33.8389L67.2901 28.7262L68.4493 28.6981Z" fill="white"/>
<path d="M74.6055 35.0079L73.6875 35.0302L73.4767 34.1109C73.3689 34.5178 73.1616 34.7937 72.855 34.9385C72.5523 35.0793 72.1047 35.1569 71.5123 35.1713C71.12 35.1808 70.7974 35.1514 70.5445 35.0829C70.2916 35.0105 70.0883 34.8859 69.9349 34.7091C69.7814 34.5322 69.6721 34.3151 69.607 34.0576C69.5457 33.7961 69.5101 33.4594 69.5001 33.0474C69.4956 32.8631 69.523 32.6975 69.5822 32.5508C69.6454 32.4041 69.7307 32.2784 69.8381 32.1737C69.9493 32.0689 70.0963 31.9771 70.2789 31.898C70.4654 31.8189 70.6581 31.7554 70.8571 31.7074C71.0562 31.6594 71.2966 31.6202 71.5785 31.5898C71.8642 31.5554 72.1423 31.531 72.4128 31.5165C72.6833 31.5021 72.999 31.4905 73.36 31.4818L73.3176 29.7341C73.3127 29.534 73.2152 29.399 73.0251 29.329C72.8349 29.2551 72.4985 29.224 72.016 29.2357C71.6786 29.2439 71.4258 29.2579 71.2575 29.2777C71.0892 29.2975 70.9608 29.3477 70.8725 29.4283C70.788 29.505 70.7388 29.5807 70.7249 29.6557C70.715 29.7305 70.7105 29.8699 70.7115 30.074C70.7094 30.1487 70.7089 30.2076 70.7099 30.2507L69.8087 30.2372C69.7994 30.1747 69.7932 30.0826 69.7903 29.961C69.7839 29.6981 69.8158 29.4756 69.8859 29.2933C69.9599 29.107 70.0565 28.9614 70.1756 28.8564C70.2947 28.7476 70.4594 28.6611 70.6698 28.5972C70.8802 28.5332 71.0892 28.4908 71.2968 28.4701C71.5043 28.4493 71.763 28.4352 72.0729 28.4277C72.5437 28.4163 72.9271 28.4443 73.2231 28.5117C73.5191 28.5751 73.7635 28.6987 73.9564 28.8825C74.1492 29.0662 74.2846 29.3043 74.3623 29.5969C74.4439 29.8854 74.4904 30.265 74.5018 30.7357L74.6055 35.0079ZM73.4014 33.1883L73.377 32.1821C72.6041 32.2008 72.0105 32.2446 71.5961 32.3136C71.1817 32.3825 70.9051 32.4717 70.7665 32.581C70.6316 32.6863 70.5665 32.8331 70.5711 33.0215C70.5713 33.0293 70.5715 33.0411 70.5719 33.0568C70.5864 33.6531 70.6444 34.0226 70.746 34.1654C70.8476 34.3081 71.1495 34.3734 71.6516 34.3613C72.0793 34.3509 72.4252 34.2915 72.6895 34.183C72.9538 34.0745 73.135 33.9406 73.2332 33.7812C73.3352 33.6178 73.3913 33.4202 73.4014 33.1883Z" fill="white"/>
<path d="M81.1486 28.39L79.2616 34.5829C79.2142 34.7332 79.1636 34.9131 79.1098 35.1224C79.06 35.3356 79.0171 35.5074 78.981 35.6378C78.9488 35.7681 78.9052 35.9105 78.8501 36.0649C78.7989 36.2232 78.7411 36.3482 78.6766 36.4401C78.6122 36.5358 78.532 36.6261 78.4359 36.7109C78.3399 36.7995 78.2237 36.8632 78.0873 36.9018C77.9509 36.9444 77.7925 36.9679 77.612 36.9723C77.1452 36.9836 76.7204 36.9487 76.3377 36.8677L76.4925 35.969C76.5673 35.975 76.6676 35.9864 76.7936 36.0029C76.9197 36.0234 77.0281 36.0385 77.1186 36.048C77.213 36.0575 77.2995 36.0613 77.3779 36.0594C77.629 36.0533 77.8172 35.9624 77.9424 35.7866C78.0677 35.6109 78.1266 35.2895 78.1192 34.8226L75.5465 28.5259L76.7175 28.4975L77.9857 31.7464C78.216 32.3375 78.4297 32.8956 78.6269 33.4207C78.7449 32.9429 78.9193 32.2831 79.1501 31.4414L79.9658 28.4187L81.1486 28.39Z" fill="white"/>
<path fill-rule="evenodd" clip-rule="evenodd" d="M68.7044 28.4909L67.0831 35.3914L65.7055 35.4248L64.3496 31.093L63.2682 35.4839L61.771 35.5202L59.8045 28.7068L61.3373 28.6696L62.4638 33.1106L63.5959 28.6149L64.9454 28.5821L66.21 32.9962L67.1254 28.5292L68.7044 28.4909ZM66.2424 33.8389L64.795 28.7867L63.7535 28.812L62.4645 33.9305L61.1819 28.8744L60.0697 28.9014L61.9211 35.3156L63.1098 35.2868L64.3265 30.3467L65.852 35.2203L66.923 35.1943L68.4494 28.6981L67.2901 28.7262L66.2424 33.8389ZM74.8112 35.2039L73.5283 35.235L73.4122 34.7286C73.2894 34.897 73.133 35.0294 72.9409 35.1202L72.9398 35.1207C72.5996 35.2789 72.1191 35.3575 71.5172 35.3721C71.1142 35.3819 70.7704 35.3522 70.4921 35.2768L70.4907 35.2764L70.4893 35.276C70.2037 35.1943 69.9652 35.0505 69.7832 34.8407C69.6065 34.6371 69.484 34.3906 69.4123 34.1068L69.4118 34.1051L69.4114 34.1034C69.3458 33.8233 69.3094 33.4715 69.2992 33.0523C69.2942 32.845 69.3249 32.6515 69.396 32.4756L69.3968 32.4735L69.3977 32.4714C69.4706 32.302 69.5704 32.154 69.6978 32.0298L69.6991 32.0286L69.7004 32.0274C69.8328 31.9026 70.0012 31.7992 70.1991 31.7136L70.1997 31.7133L70.2004 31.713C70.3972 31.6296 70.6004 31.5626 70.81 31.512C71.0197 31.4614 71.2688 31.4211 71.5557 31.3901C71.8452 31.3553 72.1273 31.3305 72.4022 31.3159C72.6235 31.3041 72.8742 31.2942 73.1543 31.2862L73.1167 29.7389C73.1151 29.6711 73.0985 29.6288 73.0779 29.6003C73.0573 29.5717 73.0215 29.5417 72.9557 29.5175L72.9541 29.5169L72.9524 29.5163C72.8033 29.4583 72.5035 29.4248 72.0209 29.4366C71.6849 29.4447 71.4397 29.4585 71.2809 29.4772C71.1376 29.494 71.0547 29.534 71.008 29.5767L71.0075 29.5771C70.9449 29.6339 70.9276 29.6717 70.9233 29.6887C70.9159 29.7505 70.9115 29.875 70.9125 30.073L70.9125 30.0763L70.9124 30.0797C70.9103 30.1529 70.9099 30.2078 70.9108 30.2458L70.9159 30.4547L69.6353 30.4356L69.6101 30.267C69.5988 30.1917 69.5924 30.0896 69.5894 29.9658C69.5826 29.6852 69.6162 29.4348 69.6984 29.2211L69.6988 29.2201L69.6992 29.2191C69.7816 29.0116 69.8938 28.8374 70.0414 28.7069C70.1889 28.5725 70.3829 28.4744 70.6114 28.4049C70.8337 28.3373 71.0555 28.2922 71.2768 28.2701C71.4911 28.2487 71.7553 28.2344 72.0681 28.2268C72.5468 28.2152 72.9481 28.2431 73.2665 28.3154C73.5931 28.3857 73.872 28.5246 74.095 28.737C74.3178 28.9493 74.4701 29.221 74.5561 29.5437C74.6438 29.8547 74.6911 30.2524 74.7027 30.7308L74.8112 35.2039ZM74.3623 29.5968C74.2846 29.3043 74.1493 29.0662 73.9564 28.8824C73.7635 28.6987 73.5191 28.5751 73.2232 28.5116C72.9271 28.4442 72.5437 28.4162 72.073 28.4277C71.763 28.4352 71.5043 28.4493 71.2968 28.47C71.0892 28.4908 70.8803 28.5331 70.6698 28.5971C70.4594 28.6611 70.2947 28.7475 70.1756 28.8564C70.0565 28.9614 69.9599 29.107 69.886 29.2933C69.8158 29.4755 69.7839 29.6981 69.7903 29.9609C69.7932 30.0825 69.7994 30.1746 69.8088 30.2372L70.7099 30.2507C70.7089 30.2075 70.7094 30.1486 70.7116 30.074C70.7115 30.0658 70.7115 30.0577 70.7115 30.0498C70.7109 29.8588 70.7154 29.7274 70.725 29.6556C70.7388 29.5807 70.788 29.5049 70.8725 29.4283C70.9609 29.3476 71.0892 29.2974 71.2575 29.2776C71.4258 29.2579 71.6786 29.2439 72.016 29.2357C72.4986 29.224 72.8349 29.2551 73.0251 29.329C73.2152 29.3989 73.3127 29.534 73.3176 29.734L73.36 31.4818C72.9991 31.4905 72.6834 31.5021 72.4129 31.5165C72.1424 31.5309 71.8642 31.5553 71.5785 31.5897C71.2966 31.6201 71.0562 31.6593 70.8572 31.7073C70.6581 31.7553 70.4654 31.8189 70.2789 31.898C70.0963 31.977 69.9494 32.0689 69.8381 32.1737C69.7307 32.2783 69.6454 32.404 69.5823 32.5508C69.523 32.6975 69.4956 32.863 69.5001 33.0474C69.5101 33.4593 69.5457 33.796 69.607 34.0575C69.6722 34.315 69.7815 34.5322 69.9349 34.709C70.0884 34.8859 70.2916 35.0105 70.5446 35.0829C70.7974 35.1513 71.12 35.1808 71.5123 35.1713C72.1047 35.1569 72.5523 35.0793 72.855 34.9385C73.067 34.8384 73.2314 34.6756 73.3484 34.4503C73.4007 34.3496 73.4435 34.2365 73.4768 34.1109L73.6875 35.0302L74.6055 35.0079L74.5018 30.7357C74.4904 30.2649 74.4439 29.8853 74.3623 29.5968ZM70.8909 32.7387L70.8902 32.7393C70.811 32.8011 70.7687 32.8844 70.7719 33.0165L70.7728 33.0518C70.7799 33.3456 70.7977 33.5774 70.8248 33.7499C70.8533 33.9312 70.8881 34.0184 70.9097 34.0488C70.9162 34.058 70.9552 34.0956 71.0911 34.125C71.2199 34.1529 71.403 34.1663 71.6468 34.1604C72.0609 34.1503 72.38 34.0928 72.6132 33.9971C72.8577 33.8968 72.9952 33.7845 73.0622 33.6758L73.0628 33.6748C73.1422 33.5476 73.1907 33.3873 73.2004 33.1861L73.181 32.3884C72.5099 32.4095 71.9939 32.451 71.6291 32.5117C71.4277 32.5452 71.2653 32.5828 71.1395 32.6233C71.0113 32.6647 70.9332 32.7053 70.8909 32.7387ZM73.1761 32.1876C73.2417 32.1855 73.3086 32.1837 73.377 32.182L73.4014 33.1883C73.3913 33.4201 73.3353 33.6177 73.2332 33.7812C73.135 33.9406 72.9538 34.0745 72.6895 34.183C72.4252 34.2914 72.0793 34.3508 71.6517 34.3612C71.1495 34.3734 70.8476 34.3081 70.746 34.1653C70.6444 34.0226 70.5864 33.653 70.5719 33.0567L70.5711 33.0214C70.5665 32.8331 70.6316 32.6863 70.7665 32.581C70.9051 32.4716 71.1817 32.3825 71.5961 32.3135C71.9739 32.2507 72.5005 32.2087 73.1761 32.1876ZM81.4219 28.1824L79.4535 34.6424L79.4532 34.6433C79.4074 34.7887 79.358 34.9641 79.305 35.1702C79.2555 35.3822 79.2122 35.5553 79.1754 35.6886C79.1416 35.8252 79.0964 35.9722 79.0403 36.1296C78.9862 36.2966 78.9214 36.4405 78.8423 36.5538C78.7679 36.664 78.6769 36.766 78.5706 36.8599C78.4504 36.9705 78.307 37.048 78.1446 37.0944C77.9871 37.1432 77.8104 37.1684 77.6169 37.1731C77.1374 37.1847 76.6967 37.1491 76.2961 37.0643L76.1069 37.0242L76.3257 35.7539L76.5087 35.7687C76.5883 35.7751 76.6924 35.7869 76.8198 35.8037L76.8229 35.8041L76.8259 35.8046C76.9494 35.8246 77.0536 35.8391 77.1392 35.8481C77.2268 35.8569 77.3046 35.8602 77.3731 35.8585C77.5727 35.8537 77.6966 35.7854 77.7788 35.67C77.8179 35.6152 77.8564 35.5228 77.883 35.3775C77.9078 35.2421 77.9205 35.0715 77.9188 34.8632L75.2503 28.3321L76.8535 28.2932L78.1729 31.6733L78.173 31.6734C78.3184 32.0467 78.4572 32.4069 78.5895 32.7539C78.6899 32.3693 78.8121 31.9141 78.9562 31.3886L78.9563 31.3882L79.811 28.2215L81.4219 28.1824ZM79.1501 31.4414C78.97 32.098 78.8243 32.6439 78.7129 33.0791C78.6815 33.2018 78.6529 33.3156 78.627 33.4207C78.5862 33.3122 78.5447 33.2022 78.5026 33.0909C78.3407 32.6635 78.1684 32.2153 77.9858 31.7464L76.7176 28.4975L75.5465 28.5259L78.1193 34.8226C78.1267 35.2895 78.0677 35.6108 77.9425 35.7866C77.8172 35.9624 77.629 36.0533 77.3779 36.0594C77.2995 36.0613 77.213 36.0575 77.1186 36.048C77.0281 36.0384 76.9198 36.0234 76.7937 36.0029C76.6676 35.9863 76.5673 35.975 76.4925 35.969L76.3377 36.8677C76.7204 36.9487 77.1452 36.9835 77.6121 36.9722C77.7925 36.9678 77.9509 36.9444 78.0873 36.9018C78.2237 36.8632 78.3399 36.7995 78.4359 36.7108C78.532 36.6261 78.6122 36.5358 78.6766 36.44C78.7412 36.3482 78.799 36.2231 78.8501 36.0649C78.9052 35.9104 78.9489 35.7681 78.981 35.6378C79.0171 35.5073 79.0601 35.3355 79.1098 35.1224C79.1636 34.913 79.2142 34.7332 79.2616 34.5829L81.1486 28.39L79.9658 28.4187L79.1501 31.4414Z" fill="white"/>
<path d="M16.0747 25.9412C19.7861 25.9647 22.8139 22.9749 22.8374 19.2635C22.8608 15.552 19.8711 12.5242 16.1596 12.5008L6.77768 12.4415L6.75144 16.5941L16.0826 16.653C17.5095 16.6621 18.6588 17.826 18.6498 19.2528C18.6408 20.6797 17.4768 21.829 16.05 21.82L5.81114 21.7553C5.28282 21.752 4.87163 21.6067 4.57758 21.3196C4.29415 21.0219 4.15411 20.6089 4.15745 20.0806L4.22776 8.95417C4.23129 8.39415 4.37661 7.9724 4.66371 7.68891C4.9508 7.40542 5.36379 7.26537 5.90268 7.26878L17.0957 7.33951L17.0956 7.34585C17.6556 7.34938 18.0774 7.4947 18.3609 7.7818C18.6444 8.06889 18.7844 8.48188 18.781 9.02077L18.7726 10.3553L22.8935 10.3813L22.9019 9.04681C22.9064 8.33886 22.8206 7.70431 22.6445 7.14316C22.4684 6.582 22.2285 6.08384 21.9248 5.64869C21.6316 5.22416 21.2905 4.85745 20.9015 4.54855C20.5125 4.23966 20.102 3.98874 19.6699 3.79581C19.2485 3.60294 18.8162 3.45756 18.373 3.35966C17.9403 3.27239 17.5338 3.22755 17.1534 3.22515L17.1365 3.2187L5.92872 3.14788C5.22077 3.14341 4.58622 3.22922 4.02506 3.40531C3.46391 3.5814 2.96575 3.82129 2.5306 4.12498C2.10607 4.41816 1.73936 4.75927 1.43046 5.14829C1.12157 5.53731 0.870653 5.94783 0.67772 6.37985C0.484855 6.8013 0.339471 7.23363 0.241569 7.67681C0.1543 8.1095 0.109464 8.51604 0.10706 8.89643L0.0365534 20.0545C0.03208 20.7625 0.117855 21.4023 0.293878 21.9741C0.469968 22.5352 0.704574 23.0333 0.997696 23.4684C1.30145 23.893 1.64784 24.2598 2.03686 24.5687C2.42595 24.867 2.83122 25.1126 3.25267 25.3054C3.68469 25.4984 4.11701 25.6438 4.54963 25.7416C4.99289 25.8289 5.40471 25.8738 5.7851 25.8762L16.0747 25.9412Z" fill="white"/>
</svg>
