<svg width="80" height="80" viewBox="0 0 80 80" fill="none" xmlns="http://www.w3.org/2000/svg">
<path d="M75.6349 42.4928C75.5767 61.6468 58.1137 75.9303 38.9597 75.8721C19.8058 75.8139 4.3157 60.209 4.37391 41.0551C4.43212 21.9011 20.4036 4.1351 39.5575 4.19331C58.7115 4.25151 75.7095 23.4679 75.6349 42.4928Z" fill="url(#paint0_linear_48_4638)"/>
<path d="M45.3777 73.7453C64.4085 71.3275 77.8761 53.9399 75.4582 34.9091C73.0404 15.8782 55.6528 2.41073 36.622 4.82856C17.5911 7.24638 4.12361 24.634 6.54144 43.6648C8.95926 62.6957 26.3468 76.1632 45.3777 73.7453Z" fill="url(#paint1_linear_48_4638)"/>
<path d="M41.0427 4.52923C31.1994 4.46839 22.3971 8.47181 16.0203 15.0522C22.3336 9.00444 30.7816 5.30832 40.2213 5.28929C59.3753 5.3475 74.8653 20.9524 74.8235 40.2354C74.8425 49.6751 71.0676 58.1543 64.9162 64.4437C71.4548 58.1051 75.5841 49.3186 75.5159 39.4917C75.8322 20.305 60.3421 4.7001 41.0427 4.52923Z" fill="url(#paint2_linear_48_4638)"/>
<path d="M68.4012 40.2642C68.2875 55.8844 55.5975 68.5125 39.9773 68.3987C24.3735 68.4141 11.7454 55.7241 11.8592 40.1039C11.8439 24.5001 24.5338 11.872 40.154 11.9857C55.7579 11.9704 68.3859 24.6604 68.4012 40.2642Z" fill="url(#paint3_linear_48_4638)"/>
<path d="M69.2227 39.5042C69.1089 55.1244 56.419 67.7524 40.7988 67.6387C25.1786 67.5249 12.6796 54.8186 12.6642 39.2148C12.778 23.5946 25.468 10.9665 41.0882 11.0802C56.692 11.0649 69.3364 23.884 69.2227 39.5042Z" fill="url(#paint4_linear_48_4638)"/>
<path opacity="0.3" d="M41.0882 11.0806C32.9554 11.0648 25.5235 14.5006 20.4516 19.9972C25.4928 15.2914 32.345 12.4537 39.8161 12.4225C55.3072 12.5527 67.9353 25.2426 67.8216 40.8628C67.8528 48.3339 64.9135 55.1332 60.1632 60.0644C65.6715 54.9058 69.2068 47.6373 69.2063 39.3755C69.3364 23.8844 56.692 11.0653 41.0882 11.0806Z" fill="url(#paint5_linear_48_4638)"/>
<g filter="url(#filter0_d_48_4638)">
<path d="M50.0932 56.1579C53.9591 56.1824 57.1128 53.0682 57.1373 49.2023L57.1684 44.2791C57.1928 40.4132 54.0787 37.2594 50.2127 37.235L34.5423 37.136L34.5054 42.9825L48.8801 43.0733C50.2056 43.0817 51.2733 44.1629 51.2649 45.4884L51.2493 47.9631C51.2409 49.2886 50.1596 50.3563 48.8342 50.3479L33.1815 50.249C32.4377 50.2443 31.8588 50.0398 31.4448 49.6355C31.0457 49.2164 30.8486 48.635 30.8533 47.8911L30.9522 32.2262C30.9572 31.4377 31.1618 30.8439 31.566 30.4448C31.9702 30.0457 32.5517 29.8485 33.3104 29.8533L49.0691 29.9529L49.069 29.9618C49.8575 29.9668 50.4512 30.1714 50.8504 30.5756C51.2495 30.9798 51.4467 31.5612 51.4419 32.3199L51.43 34.1988L57.2318 34.2355L57.2437 32.3566C57.25 31.3599 57.1292 30.4665 56.8813 29.6764C56.6334 28.8864 56.2956 28.185 55.8681 27.5724C55.4553 26.9747 54.975 26.4584 54.4273 26.0235C53.8796 25.5886 53.3016 25.2353 52.6934 24.9637C52.1 24.6922 51.4914 24.4875 50.8674 24.3496C50.2582 24.2268 49.6858 24.1636 49.1503 24.1603L49.1265 24.1512L33.347 24.0515C32.3503 24.0452 31.4569 24.166 30.6669 24.4139C29.8768 24.6618 29.1755 24.9996 28.5628 25.4271C27.9651 25.8399 27.4488 26.3201 27.0139 26.8679C26.579 27.4156 26.2257 27.9935 25.9541 28.6018C25.6826 29.1951 25.4779 29.8038 25.3401 30.4278C25.2172 31.037 25.1541 31.6093 25.1507 32.1449L25.0514 47.8545C25.0451 48.8512 25.1659 49.752 25.4137 50.557C25.6616 51.347 25.9919 52.0483 26.4046 52.6609C26.8323 53.2587 27.32 53.775 27.8677 54.2099C28.4155 54.6299 28.986 54.9757 29.5794 55.2472C30.1877 55.5189 30.7963 55.7236 31.4054 55.8613C32.0295 55.9843 32.6093 56.0474 33.1448 56.0508L50.0932 56.1579Z" fill="url(#paint6_linear_48_4638)"/>
</g>
<defs>
<filter id="filter0_d_48_4638" x="25.0512" y="24.0513" width="33.1927" height="34.1068" filterUnits="userSpaceOnUse" color-interpolation-filters="sRGB">
<feFlood flood-opacity="0" result="BackgroundImageFix"/>
<feColorMatrix in="SourceAlpha" type="matrix" values="0 0 0 0 0 0 0 0 0 0 0 0 0 0 0 0 0 0 127 0" result="hardAlpha"/>
<feOffset dx="1" dy="2"/>
<feComposite in2="hardAlpha" operator="out"/>
<feColorMatrix type="matrix" values="0 0 0 0 0 0 0 0 0 0 0 0 0 0 0 0 0 0 0.15 0"/>
<feBlend mode="normal" in2="BackgroundImageFix" result="effect1_dropShadow_48_4638"/>
<feBlend mode="normal" in="SourceGraphic" in2="effect1_dropShadow_48_4638" result="shape"/>
</filter>
<linearGradient id="paint0_linear_48_4638" x1="37.7984" y1="42.7622" x2="6.50454" y2="73.819" gradientUnits="userSpaceOnUse">
<stop offset="0.0721555" stop-color="#9FDFC1"/>
<stop offset="0.3011" stop-color="#58C297"/>
<stop offset="1" stop-color="#3D9E77"/>
</linearGradient>
<linearGradient id="paint1_linear_48_4638" x1="66.388" y1="14.1036" x2="7.46282" y2="72.5825" gradientUnits="userSpaceOnUse">
<stop offset="0.0553569" stop-color="#CFEEDE"/>
<stop offset="0.3011" stop-color="#9FDFC1"/>
<stop offset="1" stop-color="#58C297"/>
</linearGradient>
<linearGradient id="paint2_linear_48_4638" x1="66.0153" y1="14.4732" x2="36.0952" y2="44.1666" gradientUnits="userSpaceOnUse">
<stop offset="0.0553569" stop-color="#9FDFC1"/>
<stop offset="0.3011" stop-color="#58C297"/>
<stop offset="1" stop-color="#3D9E77"/>
</linearGradient>
<linearGradient id="paint3_linear_48_4638" x1="-3.62265" y1="76.2343" x2="69.6535" y2="15.8371" gradientUnits="userSpaceOnUse">
<stop offset="0.0553569" stop-color="#9FDFC1"/>
<stop offset="0.3011" stop-color="#58C297"/>
<stop offset="1" stop-color="#3D9E77"/>
</linearGradient>
<linearGradient id="paint4_linear_48_4638" x1="-2.73531" y1="75.3537" x2="70.54" y2="14.9571" gradientUnits="userSpaceOnUse">
<stop offset="0.0553569" stop-color="#EEFDF4"/>
<stop offset="0.3011" stop-color="#CFEEDE"/>
<stop offset="1" stop-color="#9FDFC1"/>
</linearGradient>
<linearGradient id="paint5_linear_48_4638" x1="25.8662" y1="51.7487" x2="67.1348" y2="17.7333" gradientUnits="userSpaceOnUse">
<stop offset="0.0553569" stop-color="#9FDFC1"/>
<stop offset="0.3011" stop-color="#58C297"/>
<stop offset="1" stop-color="#3D9E77"/>
</linearGradient>
<linearGradient id="paint6_linear_48_4638" x1="53.5129" y1="26.8955" x2="30.5129" y2="55.8955" gradientUnits="userSpaceOnUse">
<stop stop-color="#58C297"/>
<stop offset="1" stop-color="#2E7559"/>
</linearGradient>
</defs>
</svg>
