<?xml version="1.0" encoding="utf-8"?>
<!-- Generator: Adobe Illustrator 25.4.1, SVG Export Plug-In . SVG Version: 6.00 Build 0)  -->
<svg version="1.0" id="Layer_1" xmlns="http://www.w3.org/2000/svg" xmlns:xlink="http://www.w3.org/1999/xlink" x="0px" y="0px"
	 viewBox="0 0 913 587.8" style="enable-background:new 0 0 913 587.8;" xml:space="preserve">
<style type="text/css">
	.st0{fill:#FFBE40;}
	.st1{fill:none;}
</style>
<path id="形状_756" class="st0" d="M466.4,323.4c0.1-4.7,4-8.4,8.7-8.3c4.7,0.1,8.4,4,8.3,8.7c-0.1,4.6-3.9,8.3-8.5,8.3
	C470.2,332,466.4,328.1,466.4,323.4z M570.9,255.7v17.2H545c-8.7,0-14.8,2-18.1,6c-3.2,3.8-4.8,9.5-4.8,17.2
	c0,8.6,2.6,14.9,7.9,18.9c2.1,1.5,4.5,2.6,7,3.2c3.5,0.7,7,1,10.6,0.9h23.3v17.2h-29.6c-6.4,0.2-12.8-0.6-18.9-2.5
	c-4.8-1.7-9-4.7-12.3-8.6c-7-8.2-10.6-18.7-10.2-29.5c0-14.4,4-25.1,12.1-32.1c3.3-2.9,7.3-5,11.6-6.1c5.8-1.3,11.7-1.9,17.6-1.8
	L570.9,255.7z M623.7,254.6c14.5,0,25.3,4.3,32.1,12.9c6.6,8.4,9.9,18.9,9.5,29.6c0.5,11.3-3.9,22.3-12,30.1
	c-7.3,6.8-17.3,10.3-30,10.3c-13.1,0-23.4-3.9-30.9-11.6c-6.9-7-10.3-17.1-10.3-30.5c-0.3-10.3,3.2-20.3,9.9-28.1
	C599.4,258.9,609.9,254.7,623.7,254.6L623.7,254.6z M623.9,271.4c-13,0-19.5,8.3-19.5,24.8c-0.3,5.3,0.8,10.6,3.2,15.4
	c3.4,5.9,9.7,9.3,16.5,8.9c12.8,0,19.2-8.2,19.2-24.7C643.3,279.8,636.8,271.7,623.9,271.4z M681.4,255.7h79.5
	c5.5-0.2,11.1,0.4,16.5,1.6c3.6,1,6.9,3,9.5,5.8c5,6.1,7.6,13.9,7.1,21.9v51.3h-21.6v-47.8c0.1-2.7-0.1-5.4-0.5-8.1
	c-0.3-1.6-1.1-3-2.3-4.1c-2.8-2.4-6.5-3.7-10.2-3.4h-11.5v63.4h-21.6v-63.4H703v63.4h-21.6V255.7L681.4,255.7z M342.9,296
	l-31.2-41.3h24.8l18.7,27.5l20.2-27.5h24.5L367.7,296l32.2,42.1h-23.8l-20.9-28.6l-20.5,28.6h-24.1L342.9,296z M431.5,269.6H395
	l12.7-14.9h75.6v14.9h-31.5v68.6h-20.2L431.5,269.6L431.5,269.6z"/>
<path id="形状_756_拷贝" class="st0" d="M466.4,323.4c0.1-4.7,4-8.4,8.7-8.3c4.7,0.1,8.4,4,8.3,8.7c-0.1,4.6-3.9,8.3-8.5,8.3
	C470.2,332,466.4,328.1,466.4,323.4z"/>
<path id="形状_519" class="st0" d="M198.3,372.6c-43.5,0.3-79-34.7-79.3-78.1c-0.3-43.5,34.7-79,78.1-79.3
	c43.5-0.3,79,34.6,79.3,78.1v0.6C276.5,337.2,241.6,372.4,198.3,372.6z M198.3,226.9c-37-0.2-67.2,29.5-67.4,66.6
	c-0.2,37,29.5,67.2,66.6,67.4c37,0.2,67.2-29.5,67.4-66.5v-0.5C264.9,257,235.2,227.1,198.3,226.9L198.3,226.9z M201.1,283.1
	l15.1-18.5c1.6-1.9,1.3-4.8-0.6-6.4c-0.8-0.6-1.8-1-2.8-1l0,0c-1.3,0-2.6,0.6-3.4,1.6l-14,17.1l-14.1-17.1c-0.8-1-2.1-1.6-3.4-1.6
	h-11.6c-2.5,0-4.5,2.1-4.5,4.6c0,1,0.4,2,1,2.8l20.9,25.5l-26.6,32.6c-1.6,1.9-1.5,4.7,0.4,6.3c1.9,1.6,4.7,1.5,6.3-0.4l0.1-0.1
	l25.6-31.3L201.1,283.1z M236.1,257.2c-1.3,0-2.6,0.6-3.4,1.6l-25.5,31.3l-11.6,14.2l-15.1,18.5c-1.6,1.9-1.4,4.7,0.5,6.3
	s4.7,1.4,6.3-0.5l14-17.1l14,17.1c0.8,1,2.1,1.6,3.4,1.6h11.6c2.5,0,4.5-2,4.5-4.5c0-1.1-0.4-2.1-1.1-2.9l-20.8-25.5l26.6-32.6
	c1.6-2,1.2-4.8-0.7-6.4C238.1,257.6,237.1,257.3,236.1,257.2"/>
<rect x="97" y="190.9" class="st1" width="719" height="206"/>
</svg>
