<svg width="137" height="24" viewBox="0 0 137 24" fill="none" xmlns="http://www.w3.org/2000/svg">
<g id="Frame" clip-path="url(#clip0_14655_981)">
<path id="Vector" d="M4.00587 3.67805L10.3747 0.00195312L16.7435 3.67805L14.402 5.0361L10.3747 2.71805L6.34734 5.0361L4.00587 3.67805ZM16.7435 8.31414L14.402 6.9561L10.3747 9.27415L6.34734 6.9561L4.00587 8.31414V11.0303L8.03318 13.3483V17.9844L10.3747 19.3425L12.7162 17.9844V13.3483L16.7435 11.0303V8.31414ZM16.7435 15.6664V12.9503L14.402 14.3083V17.0244L16.7435 15.6664ZM18.4059 16.6264L14.3786 18.9444V21.6605L20.7474 17.9844V10.6322L18.4059 11.9903V16.6264ZM16.0645 5.9961L18.4059 7.35414V10.0703L20.7474 8.71219V5.9961L18.4059 4.63805L16.0645 5.9961ZM8.03318 19.9279V22.644L10.3747 24.002L12.7162 22.644V19.9279L10.3747 21.2859L8.03318 19.9279ZM4.00587 15.6664L6.34734 17.0244V14.3083L4.00587 12.9503V15.6664ZM8.03318 5.9961L10.3747 7.35414L12.7162 5.9961L10.3747 4.63805L8.03318 5.9961ZM2.34341 7.35414L4.68488 5.9961L2.34341 4.63805L0.00195312 5.9961V8.71219L2.34341 10.0703V7.35414ZM2.34341 11.9903L0.00195312 10.6322V17.9844L6.37072 21.6605V18.9444L2.34341 16.6264V11.9903Z" fill="#F0B90B"/>
<path id="Vector_2" d="M39.2067 15.0642V15.026C39.2067 13.2324 38.2526 12.3356 36.7071 11.7441C37.6611 11.2099 38.4625 10.3703 38.4625 8.86291V8.82475C38.4625 6.72584 36.7834 5.37109 34.0548 5.37109H27.8535V18.7278H34.2075C37.2223 18.7278 39.2067 17.5066 39.2067 15.0642ZM35.5431 9.35902C35.5431 10.3512 34.7227 10.771 33.4252 10.771H30.7157V7.94702H33.616C34.8562 7.94702 35.5431 8.44313 35.5431 9.32085V9.35902ZM36.2873 14.7017C36.2873 15.6939 35.505 16.1518 34.2075 16.1518H30.7157V13.2134H34.1121C35.6195 13.2134 36.2873 13.7667 36.2873 14.6635V14.7017Z" fill="#F0B90B"/>
<path id="Vector_3" d="M53.6829 18.7278V5.37109H50.7825V13.595L44.524 5.37109H41.8145V18.7278H44.7148V10.2367L51.1832 18.7278H53.6829Z" fill="#F0B90B"/>
<path id="Vector_4" d="M68.4333 15.0642V15.026C68.4333 13.2324 67.4792 12.3356 65.9337 11.7441C66.8877 11.2099 67.6891 10.3703 67.6891 8.86291V8.82475C67.6891 6.72584 66.01 5.37109 63.2814 5.37109H57.0801V18.7278H63.4341C66.4489 18.7278 68.4333 17.5066 68.4333 15.0642ZM64.7698 9.35902C64.7698 10.3512 63.9493 10.771 62.6518 10.771H59.9423V7.94702H62.8426C64.0828 7.94702 64.7698 8.44313 64.7698 9.32085V9.35902ZM65.5139 14.7017C65.5139 15.6939 64.7316 16.1518 63.4341 16.1518H59.9423V13.2134H63.3387C64.8461 13.2134 65.5139 13.7667 65.5139 14.6635V14.7017Z" fill="#F0B90B"/>
<path id="Vector_5" d="M86.1435 16.3685L84.6361 14.8421C83.4912 15.9106 82.4418 16.5784 80.8008 16.5784C78.2439 16.5784 76.3931 14.4414 76.3931 11.8082C76.3931 9.17498 78.2439 7.07607 80.8008 7.07607C82.3273 7.07607 83.4721 7.74391 84.5407 8.73612L86.0481 6.99975C84.7696 5.77857 83.2813 4.91992 80.8199 4.91992C76.7747 4.91992 73.9316 8.03012 73.9316 11.8464C73.9316 15.7007 76.832 18.7346 80.7245 18.7346C83.2241 18.7346 84.7506 17.8187 86.1435 16.3685Z" fill="#F0B90B"/>
<path id="Vector_6" d="M97.5208 12.8762V18.5051H99.8678V5.14844H97.5208V10.701H91.1478V5.14844H88.8008V18.5051H91.1478V12.8762H97.5208Z" fill="#F0B90B"/>
<path id="Vector_7" d="M110.396 5.05273H108.221L102.344 18.5048H104.748L106.122 15.2801H112.438L113.793 18.5048H116.273L110.396 5.05273ZM111.579 13.2003H106.981L109.27 7.85764L111.579 13.2003Z" fill="#F0B90B"/>
<path id="Vector_8" d="M118.889 5.14844V18.5051H121.236V5.14844H118.889Z" fill="#F0B90B"/>
<path id="Vector_9" d="M134.331 14.3836L127.175 5.14844H125V18.5051H127.309V9.0028L134.674 18.5051H136.64V5.14844H134.331V14.3836Z" fill="#F0B90B"/>
</g>
<defs>
<clipPath id="clip0_14655_981">
<rect width="137" height="24" fill="white" transform="translate(0.00195312 0.00195312)"/>
</clipPath>
</defs>
</svg>
