<svg width="120" height="120" viewBox="0 0 120 120" fill="none" xmlns="http://www.w3.org/2000/svg">
<rect width="120" height="120" fill="white"/>
<path d="M75.9463 88.5814C82.8703 88.6251 88.5188 83.0476 88.5626 76.1235L88.6183 67.3059C88.662 60.3819 83.0845 54.7334 76.1604 54.6896L48.094 54.5123L48.0278 64.9835L73.7737 65.1462C76.1477 65.1612 78.06 67.0978 78.045 69.4718L78.017 73.9041C78.002 76.2781 76.0653 78.1904 73.6914 78.1754L45.6567 77.9982C44.3245 77.9898 43.2876 77.6235 42.5461 76.8994C41.8315 76.1488 41.4783 75.1074 41.4867 73.7752L41.664 45.7186C41.6729 44.3064 42.0394 43.2429 42.7633 42.528C43.4873 41.8132 44.5287 41.46 45.8876 41.4686L74.1122 41.647L74.112 41.663C75.5241 41.6719 76.5876 42.0383 77.3025 42.7623C78.0173 43.4862 78.3705 44.5276 78.3619 45.8865L78.3406 49.2517L88.732 49.3174L88.7532 45.9522C88.7645 44.167 88.5481 42.5669 88.1041 41.1519C87.6601 39.7368 87.0552 38.4807 86.2894 37.3834C85.5501 36.3129 84.6899 35.3882 83.709 34.6093C82.728 33.8303 81.6928 33.1976 80.6034 32.7111C79.5407 32.2248 78.4505 31.8582 77.333 31.6113C76.2419 31.3912 75.2168 31.2782 74.2575 31.2721L74.215 31.2559L45.9532 31.0773C44.168 31.066 42.5679 31.2824 41.1529 31.7264C39.7379 32.1704 38.4817 32.7754 37.3844 33.5411C36.3139 34.2805 35.3892 35.1406 34.6103 36.1216C33.8314 37.1025 33.1987 38.1377 32.7122 39.2271C32.2258 40.2898 31.8592 41.38 31.6124 42.4975C31.3923 43.5886 31.2792 44.6138 31.2732 45.573L31.0954 73.7095C31.0841 75.4947 31.3004 77.1081 31.7443 78.5498C32.1883 79.9648 32.7799 81.2209 33.519 82.318C34.285 83.3887 35.1584 84.3135 36.1394 85.0924C37.1205 85.8447 38.1425 86.464 39.2052 86.9503C40.2946 87.4368 41.3848 87.8034 42.4757 88.0501C43.5934 88.2704 44.6319 88.3835 45.5911 88.3896L75.9463 88.5814Z" fill="#56BD93"/>
<path fill-rule="evenodd" clip-rule="evenodd" d="M80.0597 17.7313H39.9403C27.6746 17.7313 17.7313 27.6746 17.7313 39.9403V80.0597C17.7313 92.3253 27.6746 102.269 39.9403 102.269H80.0597C92.3253 102.269 102.269 92.3253 102.269 80.0597V39.9403C102.269 27.6746 92.3253 17.7313 80.0597 17.7313ZM39.9403 17.0149C27.2789 17.0149 17.0149 27.2789 17.0149 39.9403V80.0597C17.0149 92.721 27.2789 102.985 39.9403 102.985H80.0597C92.721 102.985 102.985 92.721 102.985 80.0597V39.9403C102.985 27.2789 92.721 17.0149 80.0597 17.0149H39.9403Z" fill="#8F9AB8"/>
<path fill-rule="evenodd" clip-rule="evenodd" d="M12 39.2239C12 24.1885 24.1885 12 39.2239 12H80.7761C95.8115 12 108 24.1885 108 39.2239V80.7761C108 95.8115 95.8114 108 80.7761 108H39.2239C24.1885 108 12 95.8114 12 80.7761V39.2239ZM39.2239 14.8657C25.7712 14.8657 14.8657 25.7712 14.8657 39.2239V80.7761C14.8657 94.2288 25.7712 105.134 39.2239 105.134H80.7761C94.2288 105.134 105.134 94.2288 105.134 80.7761V39.2239C105.134 25.7712 94.2288 14.8657 80.7761 14.8657H39.2239Z" fill="#8F9AB8"/>
<path fill-rule="evenodd" clip-rule="evenodd" d="M80.0597 17.7313H39.9403C27.6746 17.7313 17.7313 27.6746 17.7313 39.9403V80.0597C17.7313 92.3253 27.6746 102.269 39.9403 102.269H80.0597C92.3253 102.269 102.269 92.3253 102.269 80.0597V39.9403C102.269 27.6746 92.3253 17.7313 80.0597 17.7313ZM39.9403 17.0149C27.2789 17.0149 17.0149 27.2789 17.0149 39.9403V80.0597C17.0149 92.721 27.2789 102.985 39.9403 102.985H80.0597C92.721 102.985 102.985 92.721 102.985 80.0597V39.9403C102.985 27.2789 92.721 17.0149 80.0597 17.0149H39.9403Z" fill="#8F9AB8"/>
</svg>
