<svg width="32" height="32" viewBox="0 0 32 32" fill="none" xmlns="http://www.w3.org/2000/svg">
<rect x="0.900186" y="1.68498" width="29.3767" height="29.3767" rx="14.6884" stroke="white" stroke-width="1.49373"/>
<path d="M9.84736 8.99527C9.62791 8.79078 9.33765 8.67946 9.03775 8.68475C8.73784 8.69004 8.45169 8.81154 8.23959 9.02364C8.02749 9.23574 7.906 9.52188 7.90071 9.82179C7.89542 10.1217 8.00674 10.412 8.21122 10.6314L13.9531 16.3733L8.21122 22.1152C8.09749 22.2212 8.00626 22.349 7.94299 22.491C7.87972 22.633 7.8457 22.7863 7.84295 22.9417C7.84021 23.0972 7.8688 23.2516 7.92703 23.3957C7.98525 23.5399 8.07191 23.6708 8.18184 23.7807C8.29177 23.8906 8.42271 23.9773 8.56686 24.0355C8.711 24.0938 8.8654 24.1223 9.02084 24.1196C9.17627 24.1169 9.32957 24.0828 9.47157 24.0196C9.61357 23.9563 9.74138 23.8651 9.84736 23.7513L15.5893 18.0094L21.3312 23.7513C21.4371 23.8651 21.5649 23.9563 21.7069 24.0196C21.849 24.0828 22.0022 24.1169 22.1577 24.1196C22.3131 24.1223 22.4675 24.0938 22.6117 24.0355C22.7558 23.9773 22.8868 23.8906 22.9967 23.7807C23.1066 23.6708 23.1933 23.5399 23.2515 23.3957C23.3097 23.2516 23.3383 23.0972 23.3356 22.9417C23.3328 22.7863 23.2988 22.633 23.2355 22.491C23.1723 22.349 23.081 22.2212 22.9673 22.1152L17.2254 16.3733L22.9673 10.6314C23.1718 10.412 23.2831 10.1217 23.2778 9.82179C23.2725 9.52188 23.151 9.23574 22.9389 9.02364C22.7268 8.81154 22.4407 8.69004 22.1408 8.68475C21.8409 8.67946 21.5506 8.79078 21.3312 8.99527L15.5893 14.7372L9.84736 8.99527Z" fill="white"/>
</svg>
