<svg width="32" height="32" viewBox="0 0 32 32" fill="none" xmlns="http://www.w3.org/2000/svg">
<g id="Icon/Hamburger">
<g id="Vector">
<path d="M2.66675 8.66675C2.66675 7.56218 3.56218 6.66675 4.66675 6.66675H27.3334C28.438 6.66675 29.3334 7.56218 29.3334 8.66675C29.3334 9.77132 28.438 10.6667 27.3334 10.6667H4.66675C3.56218 10.6667 2.66675 9.77132 2.66675 8.66675Z" fill="#F0F3F7"/>
<path d="M2.66675 16.6667C2.66675 15.5622 3.56218 14.6667 4.66675 14.6667H27.3334C28.438 14.6667 29.3334 15.5622 29.3334 16.6667C29.3334 17.7713 28.438 18.6667 27.3334 18.6667H4.66675C3.56218 18.6667 2.66675 17.7713 2.66675 16.6667Z" fill="#F0F3F7"/>
<path d="M2.66675 24.6667C2.66675 23.5622 3.56218 22.6667 4.66675 22.6667H27.3334C28.438 22.6667 29.3334 23.5622 29.3334 24.6667C29.3334 25.7713 28.438 26.6667 27.3334 26.6667H4.66675C3.56218 26.6667 2.66675 25.7713 2.66675 24.6667Z" fill="#F0F3F7"/>
</g>
</g>
</svg>
